<svg xmlns="http://www.w3.org/2000/svg" viewBox="0 0 2340 1560"><defs><clipPath id="a"><path fill="none" d="M1010.22 508.76v144.33a1306 1306 0 0 1 151.94-8.68q12.3 0 24.46.22l2.11-144.29q-13.2-.25-26.57-.26a1308.25 1308.25 0 0 0-151.94 8.68Z"/></clipPath></defs><path fill="#bac3fa" d="M1638.23 1112.73h-951.8a4.3 4.3 0 1 1 0-8.59h951.8a4.3 4.3 0 0 1 0 8.59ZM1675 1141.78H649.61a4.3 4.3 0 0 1 0-8.59H1675a4.3 4.3 0 1 1 0 8.59ZM1700.15 1180.06H624.5a4.29 4.29 0 0 1 0-8.58h1075.65a4.29 4.29 0 0 1 0 8.58ZM1742.11 1228.52H582.55a4.3 4.3 0 1 1 0-8.59h1159.56a4.3 4.3 0 0 1 0 8.59ZM1799.11 1287.27H525.55a4.3 4.3 0 1 1 0-8.59h1273.56a4.3 4.3 0 0 1 0 8.59Z"/><path fill="#bac3fa" d="M1162.33 1348.78a4.3 4.3 0 0 1-4.3-4.29v-234.92a4.3 4.3 0 0 1 8.59 0v234.92a4.29 4.29 0 0 1-4.29 4.29ZM1041.6 1348.78a4.28 4.28 0 0 1-4.26-4.89l33.1-234.92a4.3 4.3 0 0 1 8.51 1.2l-33.11 234.92a4.29 4.29 0 0 1-4.24 3.69ZM897.49 1348.78a4.22 4.22 0 0 1-1.31-.21 4.29 4.29 0 0 1-2.78-5.4l75.43-234.91a4.29 4.29 0 1 1 8.17 2.62l-75.42 234.92a4.31 4.31 0 0 1-4.09 2.98ZM722.22 1348.78a4.24 4.24 0 0 1-2.23-.63 4.29 4.29 0 0 1-1.43-5.89l143-234.92a4.29 4.29 0 0 1 7.34 4.46l-143 234.92a4.27 4.27 0 0 1-3.68 2.06ZM527.49 1348.78a4.29 4.29 0 0 1-3.15-7.21l217.6-234.92a4.3 4.3 0 0 1 6.3 5.84l-217.6 234.91a4.24 4.24 0 0 1-3.15 1.38ZM1285 1348.78a4.29 4.29 0 0 1-4.24-3.69l-33.11-234.92a4.3 4.3 0 0 1 8.51-1.2l33.1 234.92a4.29 4.29 0 0 1-3.65 4.85 4.17 4.17 0 0 1-.61.04ZM1429.11 1348.78a4.29 4.29 0 0 1-4.08-3l-75.43-234.92a4.29 4.29 0 1 1 8.17-2.62l75.43 234.91a4.3 4.3 0 0 1-4.09 5.61ZM1604.38 1348.78a4.27 4.27 0 0 1-3.67-2.06l-143-234.92a4.29 4.29 0 0 1 7.34-4.46l143 234.92a4.29 4.29 0 0 1-1.43 5.89 4.24 4.24 0 0 1-2.24.63ZM1799.11 1348.78a4.26 4.26 0 0 1-3.15-1.38l-217.6-234.91a4.3 4.3 0 1 1 6.3-5.84l217.6 234.92a4.29 4.29 0 0 1-3.15 7.21Z"/><path fill="#bac3fa" d="M1726 1180.06H598.67a4.29 4.29 0 0 1 0-8.58H1726a4.29 4.29 0 0 1 0 8.58ZM1742.11 1228.52H534.19a4.3 4.3 0 0 1 0-8.59h1207.92a4.3 4.3 0 0 1 0 8.59Z"/><path fill="#bac3fa" d="M1793 1228.52H587.63a4.3 4.3 0 0 1 0-8.59H1793a4.3 4.3 0 0 1 0 8.59ZM1638.23 400.17h-951.8a4.29 4.29 0 1 1 0-8.58h951.8a4.29 4.29 0 0 1 0 8.58ZM1675 371.12H649.61a4.3 4.3 0 0 1 0-8.59H1675a4.3 4.3 0 1 1 0 8.59ZM1726 332.84H598.67a4.3 4.3 0 0 1 0-8.59H1726a4.3 4.3 0 0 1 0 8.59ZM1742.11 284.38H582.55a4.3 4.3 0 1 1 0-8.59h1159.56a4.3 4.3 0 0 1 0 8.59ZM1799.11 225.63H525.55a4.29 4.29 0 1 1 0-8.58h1273.56a4.29 4.29 0 1 1 0 8.58Z"/><path fill="#bac3fa" d="M1162.33 399a4.31 4.31 0 0 1-4.3-4.3V159.83a4.3 4.3 0 1 1 8.59 0v234.91a4.3 4.3 0 0 1-4.29 4.26ZM1074.69 399a4.31 4.31 0 0 1-4.25-3.7l-33.1-234.91a4.29 4.29 0 0 1 8.5-1.2L1079 394.14a4.34 4.34 0 0 1-4.26 4.9ZM972.91 399a4.28 4.28 0 0 1-4.08-3L893.4 161.14a4.3 4.3 0 0 1 8.18-2.63L977 393.43a4.29 4.29 0 0 1-2.77 5.4 4.33 4.33 0 0 1-1.32.17ZM865.19 399a4.31 4.31 0 0 1-3.67-2.07l-143-234.91a4.29 4.29 0 0 1 7.33-4.47l143 234.92a4.3 4.3 0 0 1-3.67 6.53ZM745.09 399a4.31 4.31 0 0 1-3.15-1.38l-217.6-234.88a4.29 4.29 0 0 1 6.3-5.83l217.6 234.91a4.3 4.3 0 0 1-3.15 7.22ZM1251.91 399a4.34 4.34 0 0 1-4.26-4.9l33.11-234.91a4.29 4.29 0 0 1 8.5 1.2l-33.1 234.91a4.3 4.3 0 0 1-4.25 3.7ZM1353.69 399a4.33 4.33 0 0 1-1.32-.21 4.29 4.29 0 0 1-2.77-5.4l75.4-234.88a4.29 4.29 0 1 1 8.17 2.63l-75.43 234.91a4.28 4.28 0 0 1-4.05 2.95ZM1461.41 399a4.3 4.3 0 0 1-3.67-6.53l143-234.92a4.29 4.29 0 0 1 7.33 4.47L1465.08 397a4.31 4.31 0 0 1-3.67 2ZM1581.51 399a4.3 4.3 0 0 1-3.15-7.22L1796 156.91a4.29 4.29 0 0 1 6.3 5.83l-217.6 234.92a4.29 4.29 0 0 1-3.19 1.34Z"/><path fill="#bac3fa" d="M1790.46 284.38H534.19a4.3 4.3 0 0 1 0-8.59h1256.27a4.3 4.3 0 0 1 0 8.59Z"/><path fill="#bac3fa" d="M381.44 1348.78a4.29 4.29 0 0 1-2.63-7.69l303.32-234.76V398L378.81 163.22a4.29 4.29 0 1 1 5.25-6.79l305 236.05a4.32 4.32 0 0 1 1.67 3.4v712.55a4.3 4.3 0 0 1-1.67 3.4l-305 236.05a4.25 4.25 0 0 1-2.62.9Z"/><path fill="#bac3fa" d="M649.61 1141.78a4.29 4.29 0 0 1-4.29-4.29V366.83a4.29 4.29 0 1 1 8.58 0v770.66a4.29 4.29 0 0 1-4.29 4.29ZM598.67 1180.06a4.29 4.29 0 0 1-4.29-4.29V328.54a4.29 4.29 0 0 1 8.58 0v847.23a4.29 4.29 0 0 1-4.29 4.29ZM534.19 1228.52a4.29 4.29 0 0 1-4.29-4.29V280.09a4.3 4.3 0 1 1 8.59 0v944.14a4.29 4.29 0 0 1-4.3 4.29ZM456 1231.32a4.29 4.29 0 0 1-4.29-4.29V277.28a4.3 4.3 0 0 1 8.59 0V1227a4.3 4.3 0 0 1-4.3 4.32Z"/><path fill="#bac3fa" d="M686.75 756.45H381.43a4.3 4.3 0 0 1 0-8.59h305.32a4.3 4.3 0 1 1 0 8.59ZM686.76 691.1h-.35l-305.32-24.7a4.29 4.29 0 1 1 .69-8.56l305.32 24.69a4.29 4.29 0 0 1-.34 8.57ZM686.76 615.2a4.11 4.11 0 0 1-.78-.07l-305.32-56.25a4.3 4.3 0 1 1 1.55-8.45l305.32 56.25a4.3 4.3 0 0 1-.77 8.52ZM686.75 534.87a4.11 4.11 0 0 1-1.41-.25L380 428a4.29 4.29 0 1 1 2.83-8.11l305.34 106.63a4.29 4.29 0 0 1-1.42 8.35ZM686.75 445.3a4.27 4.27 0 0 1-2-.5L379.42 282.53a4.29 4.29 0 1 1 4-7.58l305.35 162.27a4.29 4.29 0 0 1-2 8.08ZM381.43 847.94a4.29 4.29 0 0 1-.34-8.57l305.32-24.69a4.29 4.29 0 0 1 .69 8.56l-305.32 24.68ZM381.43 955.4a4.29 4.29 0 0 1-.77-8.51L686 890.64a4.29 4.29 0 1 1 1.55 8.44l-305.34 56.25a4.11 4.11 0 0 1-.78.07ZM381.43 1086.1a4.29 4.29 0 0 1-1.41-8.34l305.32-106.62a4.29 4.29 0 1 1 2.83 8.11l-305.32 106.61a4.41 4.41 0 0 1-1.42.24ZM381.44 1231.32a4.29 4.29 0 0 1-2-8.08L684.74 1061a4.29 4.29 0 0 1 4 7.58l-305.29 162.24a4.27 4.27 0 0 1-2.01.5ZM1950.47 1348.78a4.23 4.23 0 0 1-2.58-.87l-312.25-236.05a4.31 4.31 0 0 1-1.71-3.43V395.88a4.32 4.32 0 0 1 1.71-3.43l312.25-236a4.29 4.29 0 0 1 5.18 6.85L1642.52 398v708.3l310.55 234.76a4.3 4.3 0 0 1-2.6 7.72Z"/><path fill="#bac3fa" d="M1675 1141.78a4.29 4.29 0 0 1-4.29-4.29V366.83a4.3 4.3 0 1 1 8.59 0v770.66a4.29 4.29 0 0 1-4.3 4.29ZM1726 1180.06a4.29 4.29 0 0 1-4.29-4.29V328.54a4.29 4.29 0 1 1 8.58 0v847.23a4.29 4.29 0 0 1-4.29 4.29ZM1793 1228.52a4.29 4.29 0 0 1-4.29-4.28l-2.54-944.14a4.3 4.3 0 0 1 4.28-4.31 4.3 4.3 0 0 1 4.29 4.29l2.54 944.13a4.29 4.29 0 0 1-4.28 4.31ZM1868.63 1231.32a4.29 4.29 0 0 1-4.29-4.29V277.28a4.29 4.29 0 1 1 8.58 0V1227a4.29 4.29 0 0 1-4.29 4.32Z"/><path fill="#bac3fa" d="M1950.48 756.45H1637.9a4.3 4.3 0 0 1 0-8.59h312.58a4.3 4.3 0 0 1 0 8.59ZM1637.9 691.1a4.29 4.29 0 0 1-.34-8.57l312.58-24.69a4.29 4.29 0 1 1 .68 8.56l-312.58 24.69ZM1637.89 615.2a4.29 4.29 0 0 1-.75-8.52l312.58-56.25a4.29 4.29 0 0 1 1.52 8.45l-312.58 56.25a4 4 0 0 1-.77.07ZM1637.9 534.87a4.3 4.3 0 0 1-1.39-8.36l312.58-106.62a4.29 4.29 0 0 1 2.77 8.13l-312.57 106.61a4.24 4.24 0 0 1-1.39.24ZM1637.9 445.3a4.29 4.29 0 0 1-2-8.1l312.6-162.27a4.29 4.29 0 1 1 4 7.62l-312.62 162.27a4.25 4.25 0 0 1-1.98.48ZM1950.48 847.94h-.34l-312.58-24.68a4.29 4.29 0 1 1 .68-8.56l312.58 24.69a4.29 4.29 0 0 1-.34 8.57ZM1950.48 955.4a3.91 3.91 0 0 1-.76-.07l-312.58-56.24a4.29 4.29 0 1 1 1.52-8.45l312.58 56.24a4.29 4.29 0 0 1-.76 8.52ZM1950.48 1086.1a4.22 4.22 0 0 1-1.39-.23l-312.58-106.61a4.3 4.3 0 0 1 2.78-8.13l312.57 106.61a4.29 4.29 0 0 1-1.38 8.36ZM1950.47 1231.32a4.24 4.24 0 0 1-2-.48l-312.58-162.27a4.29 4.29 0 0 1 4-7.62l312.58 162.27a4.29 4.29 0 0 1-2 8.1Z"/><path fill="#243047" d="M1736.09 1207.58a3.86 3.86 0 0 0-3.86 3.86 3.87 3.87 0 0 0 7.73 0 3.86 3.86 0 0 0-3.87-3.86Z"/><circle cx="1748.97" cy="1250.08" r="3.86" fill="#243047"/><path fill="#243047" d="M1748.46 1228.13c-.84-2-1.69-4.07-2.57-6.12a3.81 3.81 0 0 0-.78 2.31 3.84 3.84 0 0 0 3.35 3.81ZM1736.09 1259.09a3.86 3.86 0 0 0-3.86 3.87 3.87 3.87 0 0 0 7.73 0 3.87 3.87 0 0 0-3.87-3.87Z"/><circle cx="1736.09" cy="1237.2" r="3.86" fill="#243047"/><path fill="#243047" d="M1761.85 1310.61a3.86 3.86 0 0 0-3.86 3.87 3.87 3.87 0 0 0 7.73 0 3.87 3.87 0 0 0-3.87-3.87Z"/><circle cx="1761.85" cy="1288.72" r="3.86" fill="#243047"/><path fill="#243047" d="M1771.06 1300.46a3.89 3.89 0 0 0-.19 1.14 3.78 3.78 0 0 0 .87 2.41c-.22-1.17-.45-2.36-.68-3.55Z"/><circle cx="1748.97" cy="1301.6" r="3.86" fill="#243047"/><circle cx="1748.97" cy="1275.84" r="3.86" fill="#243047"/><path fill="#243047" d="M1736.09 1310.61a3.86 3.86 0 0 0-3.86 3.87 3.87 3.87 0 0 0 7.73 0 3.87 3.87 0 0 0-3.87-3.87Z"/><circle cx="1736.09" cy="1288.72" r="3.86" fill="#243047"/><path fill="#243047" d="M1761.85 1266.82a3.93 3.93 0 0 0 .6-.06c-.39-1.26-.79-2.53-1.2-3.8s-.73-2.3-1.11-3.45a3.85 3.85 0 0 0-2.14 3.49 3.86 3.86 0 0 0 3.85 3.82ZM1761.85 1362.13a3.86 3.86 0 0 0-3.85 3.87 3.87 3.87 0 0 0 7.73 0 3.86 3.86 0 0 0-3.88-3.87Z"/><circle cx="1761.85" cy="1340.24" r="3.86" fill="#243047"/><path fill="#243047" d="M1774.73 1349.25a3.85 3.85 0 0 0-.26 7.7c.32-2.47.58-5 .74-7.65a3.71 3.71 0 0 0-.48-.05Z"/><circle cx="1748.97" cy="1353.11" r="3.86" fill="#243047"/><path fill="#243047" d="M1774.73 1331.22h.43c-.15-2.51-.36-5.06-.62-7.67a3.86 3.86 0 0 0 .19 7.71Z"/><circle cx="1748.97" cy="1327.36" r="3.86" fill="#243047"/><path fill="#243047" d="M1736.09 1362.13a3.86 3.86 0 0 0-3.86 3.86 3.87 3.87 0 0 0 7.73 0 3.86 3.86 0 0 0-3.87-3.86Z"/><circle cx="1736.09" cy="1340.24" r="3.86" fill="#243047"/><path fill="#243047" d="M1758 1391.75a4.2 4.2 0 0 0 .06.62 35 35 0 0 0 4.46-4.41 3.51 3.51 0 0 0-.66-.07 3.86 3.86 0 0 0-3.86 3.86Z"/><circle cx="1748.97" cy="1378.87" r="3.86" fill="#243047"/><circle cx="1736.09" cy="1391.75" r="3.86" fill="#243047"/><path fill="#243047" d="M1712.46 1156.7a3.86 3.86 0 0 0-6 3.22 3.87 3.87 0 1 0 7.73 0v-.35c-.59-.96-1.19-1.92-1.73-2.87Z"/><circle cx="1697.45" cy="1147.04" r="3.86" fill="#243047"/><path fill="#243047" d="M1684.58 1156.06a3.86 3.86 0 0 0-3.87 3.86 3.87 3.87 0 1 0 7.73 0 3.86 3.86 0 0 0-3.86-3.86Z"/><circle cx="1684.58" cy="1134.16" r="3.86" fill="#243047"/><path fill="#243047" d="M1710.33 1207.58a3.86 3.86 0 0 0-3.86 3.86 3.87 3.87 0 0 0 7.73 0 3.86 3.86 0 0 0-3.87-3.86Z"/><circle cx="1710.33" cy="1185.68" r="3.86" fill="#243047"/><circle cx="1723.21" cy="1198.56" r="3.86" fill="#243047"/><circle cx="1697.45" cy="1198.56" r="3.86" fill="#243047"/><path fill="#243047" d="M1723.21 1176.67a3.68 3.68 0 0 0 .59-.06q-1.72-3.16-3.49-6.33a3.82 3.82 0 0 0-1 2.52 3.86 3.86 0 0 0 3.9 3.87Z"/><circle cx="1697.45" cy="1172.8" r="3.86" fill="#243047"/><path fill="#243047" d="M1684.58 1207.58a3.86 3.86 0 0 0-3.87 3.86 3.87 3.87 0 0 0 7.73 0 3.86 3.86 0 0 0-3.86-3.86Z"/><circle cx="1684.58" cy="1185.68" r="3.86" fill="#243047"/><path fill="#243047" d="M1710.33 1259.09a3.86 3.86 0 0 0-3.86 3.87 3.87 3.87 0 0 0 7.73 0 3.87 3.87 0 0 0-3.87-3.87Z"/><circle cx="1710.33" cy="1237.2" r="3.86" fill="#243047"/><circle cx="1723.21" cy="1250.08" r="3.86" fill="#243047"/><circle cx="1697.45" cy="1250.08" r="3.86" fill="#243047"/><circle cx="1723.21" cy="1224.32" r="3.86" fill="#243047"/><circle cx="1697.45" cy="1224.32" r="3.86" fill="#243047"/><path fill="#243047" d="M1684.58 1259.09a3.87 3.87 0 0 0-3.87 3.87 3.87 3.87 0 0 0 7.73 0 3.86 3.86 0 0 0-3.86-3.87Z"/><circle cx="1684.58" cy="1237.2" r="3.86" fill="#243047"/><path fill="#243047" d="M1710.33 1310.61a3.86 3.86 0 0 0-3.86 3.87 3.87 3.87 0 0 0 7.73 0 3.87 3.87 0 0 0-3.87-3.87Z"/><circle cx="1710.33" cy="1288.72" r="3.86" fill="#243047"/><circle cx="1723.21" cy="1301.6" r="3.86" fill="#243047"/><circle cx="1697.45" cy="1301.6" r="3.86" fill="#243047"/><circle cx="1723.21" cy="1275.84" r="3.86" fill="#243047"/><circle cx="1697.45" cy="1275.84" r="3.86" fill="#243047"/><path fill="#243047" d="M1684.58 1310.61a3.87 3.87 0 0 0-3.87 3.87 3.87 3.87 0 0 0 7.73 0 3.86 3.86 0 0 0-3.86-3.87Z"/><circle cx="1684.58" cy="1288.72" r="3.86" fill="#243047"/><path fill="#243047" d="M1710.33 1362.13a3.86 3.86 0 0 0-3.86 3.86 3.87 3.87 0 0 0 7.73 0 3.86 3.86 0 0 0-3.87-3.86Z"/><circle cx="1710.33" cy="1340.24" r="3.86" fill="#243047"/><circle cx="1723.21" cy="1353.11" r="3.86" fill="#243047"/><circle cx="1697.45" cy="1353.11" r="3.86" fill="#243047"/><circle cx="1723.21" cy="1327.36" r="3.86" fill="#243047"/><circle cx="1697.45" cy="1327.36" r="3.86" fill="#243047"/><path fill="#243047" d="M1684.58 1362.13a3.86 3.86 0 0 0-3.87 3.86 3.87 3.87 0 0 0 7.73 0 3.86 3.86 0 0 0-3.86-3.86Z"/><circle cx="1684.58" cy="1340.24" r="3.86" fill="#243047"/><path fill="#243047" d="M1710.33 1387.89a3.86 3.86 0 0 0-3.86 3.86 4.05 4.05 0 0 0 .21 1.22c1.81.82 3.59 1.56 5.34 2.24a3.85 3.85 0 0 0-1.69-7.32Z"/><circle cx="1723.21" cy="1378.87" r="3.86" fill="#243047"/><circle cx="1697.45" cy="1378.87" r="3.86" fill="#243047"/><path fill="#243047" d="M1658.82 1104.54a3.86 3.86 0 0 0-3.87 3.86 3.87 3.87 0 0 0 7.73 0 3.86 3.86 0 0 0-3.86-3.86ZM1658.82 1086.51a3.84 3.84 0 0 0 2.84-1.27c-1.67-2-3.35-3.88-5-5.78a3.86 3.86 0 0 0 2.19 7ZM1671.7 1099.39a3.86 3.86 0 0 0 1.35-.26c-1.53-1.93-3-3.84-4.58-5.72a3.85 3.85 0 0 0 3.23 6Z"/><circle cx="1645.94" cy="1095.52" r="3.86" fill="#243047"/><path fill="#243047" d="M1645.94 1073.63a3.87 3.87 0 0 0 3.45-2.15 426.97 426.97 0 0 0-5-5.25 3.86 3.86 0 0 0 1.55 7.4ZM1633.06 1104.54a3.86 3.86 0 0 0-3.87 3.86 3.87 3.87 0 0 0 7.73 0 3.86 3.86 0 0 0-3.86-3.86Z"/><circle cx="1633.06" cy="1082.65" r="3.86" fill="#243047"/><path fill="#243047" d="M1658.82 1156.06a3.86 3.86 0 0 0-3.87 3.86 3.87 3.87 0 1 0 7.73 0 3.86 3.86 0 0 0-3.86-3.86Z"/><circle cx="1658.82" cy="1134.16" r="3.86" fill="#243047"/><circle cx="1671.7" cy="1147.04" r="3.86" fill="#243047"/><circle cx="1645.94" cy="1147.04" r="3.86" fill="#243047"/><circle cx="1671.7" cy="1121.28" r="3.86" fill="#243047"/><circle cx="1645.94" cy="1121.28" r="3.86" fill="#243047"/><path fill="#243047" d="M1633.06 1156.06a3.86 3.86 0 0 0-3.87 3.86 3.87 3.87 0 1 0 7.73 0 3.86 3.86 0 0 0-3.86-3.86Z"/><circle cx="1633.06" cy="1134.16" r="3.86" fill="#243047"/><path fill="#243047" d="m1682.66 1111.74-1.85-2.5a3.82 3.82 0 0 0 1.85 2.5ZM1658.82 1207.58a3.86 3.86 0 0 0-3.87 3.86 3.87 3.87 0 0 0 7.73 0 3.86 3.86 0 0 0-3.86-3.86Z"/><circle cx="1658.82" cy="1185.68" r="3.86" fill="#243047"/><circle cx="1671.7" cy="1198.56" r="3.86" fill="#243047"/><circle cx="1645.94" cy="1198.56" r="3.86" fill="#243047"/><circle cx="1671.7" cy="1172.8" r="3.86" fill="#243047"/><circle cx="1645.94" cy="1172.8" r="3.86" fill="#243047"/><path fill="#243047" d="M1633.06 1207.58a3.86 3.86 0 0 0-3.87 3.86 3.87 3.87 0 0 0 7.73 0 3.86 3.86 0 0 0-3.86-3.86Z"/><circle cx="1633.06" cy="1185.68" r="3.86" fill="#243047"/><path fill="#243047" d="M1658.82 1259.09a3.87 3.87 0 0 0-3.82 3.91 3.87 3.87 0 0 0 7.73 0 3.86 3.86 0 0 0-3.91-3.91Z"/><circle cx="1658.82" cy="1237.2" r="3.86" fill="#243047"/><circle cx="1671.7" cy="1250.08" r="3.86" fill="#243047"/><circle cx="1645.94" cy="1250.08" r="3.86" fill="#243047"/><circle cx="1671.7" cy="1224.32" r="3.86" fill="#243047"/><circle cx="1645.94" cy="1224.32" r="3.86" fill="#243047"/><path fill="#243047" d="M1633.06 1259.09a3.87 3.87 0 0 0-3.87 3.87 3.87 3.87 0 0 0 7.73 0 3.86 3.86 0 0 0-3.86-3.87Z"/><circle cx="1633.06" cy="1237.2" r="3.86" fill="#243047"/><path fill="#243047" d="M1658.82 1310.61a3.87 3.87 0 0 0-3.87 3.87 3.87 3.87 0 0 0 7.73 0 3.86 3.86 0 0 0-3.86-3.87Z"/><circle cx="1658.82" cy="1288.72" r="3.86" fill="#243047"/><circle cx="1671.7" cy="1301.6" r="3.86" fill="#243047"/><circle cx="1645.94" cy="1301.6" r="3.86" fill="#243047"/><circle cx="1671.7" cy="1275.84" r="3.86" fill="#243047"/><circle cx="1645.94" cy="1275.84" r="3.86" fill="#243047"/><path fill="#243047" d="M1633.06 1310.61a3.87 3.87 0 0 0-3.87 3.87 3.87 3.87 0 0 0 7.73 0 3.86 3.86 0 0 0-3.86-3.87Z"/><circle cx="1633.06" cy="1288.72" r="3.86" fill="#243047"/><circle cx="1658.82" cy="1340.24" r="3.86" fill="#243047"/><circle cx="1671.7" cy="1353.11" r="3.86" fill="#243047"/><circle cx="1671.7" cy="1327.36" r="3.86" fill="#243047"/><circle cx="1645.94" cy="1327.36" r="3.86" fill="#243047"/><path fill="#243047" d="M1607.3 1053a3.87 3.87 0 0 0-3.87 3.87 3.87 3.87 0 0 0 7.73 0 3.86 3.86 0 0 0-3.86-3.87ZM1607.3 1035a3.72 3.72 0 0 0 1.45-.29q-2.65-2-5.3-3.75v.18a3.86 3.86 0 0 0 3.85 3.86ZM1620.18 1047.87a3.82 3.82 0 0 0 3.1-1.59c-2-1.69-3.94-3.34-5.9-4.92a3.82 3.82 0 0 0-1.07 2.65 3.86 3.86 0 0 0 3.87 3.86Z"/><circle cx="1594.42" cy="1044.01" r="3.86" fill="#243047"/><path fill="#243047" d="M1581.54 1053a3.86 3.86 0 0 0-3.86 3.87 3.86 3.86 0 1 0 7.72 0 3.86 3.86 0 0 0-3.86-3.87Z"/><circle cx="1581.54" cy="1031.13" r="3.86" fill="#243047"/><path fill="#243047" d="M1607.3 1104.54a3.86 3.86 0 0 0-3.87 3.86 3.87 3.87 0 0 0 7.73 0 3.86 3.86 0 0 0-3.86-3.86Z"/><circle cx="1607.3" cy="1082.65" r="3.86" fill="#243047"/><circle cx="1620.18" cy="1095.52" r="3.86" fill="#243047"/><circle cx="1594.42" cy="1095.52" r="3.86" fill="#243047"/><circle cx="1620.18" cy="1069.77" r="3.86" fill="#243047"/><circle cx="1594.42" cy="1069.77" r="3.86" fill="#243047"/><path fill="#243047" d="M1581.54 1104.54a3.86 3.86 0 0 0-3.86 3.86 3.86 3.86 0 0 0 7.72 0 3.86 3.86 0 0 0-3.86-3.86Z"/><circle cx="1581.54" cy="1082.65" r="3.86" fill="#243047"/><path fill="#243047" d="M1633.06 1060.75a3.84 3.84 0 0 0 3.53-2.32l-1.62-1.54-1.91-1.82-1.74-1.62a3.85 3.85 0 0 0-2.13 3.44 3.86 3.86 0 0 0 3.87 3.86ZM1607.3 1156.06a3.86 3.86 0 0 0-3.87 3.86 3.87 3.87 0 1 0 7.73 0 3.86 3.86 0 0 0-3.86-3.86Z"/><circle cx="1607.3" cy="1134.16" r="3.86" fill="#243047"/><circle cx="1620.18" cy="1147.04" r="3.86" fill="#243047"/><circle cx="1594.42" cy="1147.04" r="3.86" fill="#243047"/><circle cx="1620.18" cy="1121.28" r="3.86" fill="#243047"/><circle cx="1594.42" cy="1121.28" r="3.86" fill="#243047"/><path fill="#243047" d="M1581.54 1156.06a3.86 3.86 0 0 0-3.86 3.86 3.86 3.86 0 1 0 7.72 0 3.86 3.86 0 0 0-3.86-3.86Z"/><circle cx="1581.54" cy="1134.16" r="3.86" fill="#243047"/><path fill="#243047" d="M1607.3 1207.58a3.86 3.86 0 0 0-3.87 3.86 3.87 3.87 0 0 0 7.73 0 3.86 3.86 0 0 0-3.86-3.86Z"/><circle cx="1607.3" cy="1185.68" r="3.86" fill="#243047"/><circle cx="1620.18" cy="1198.56" r="3.86" fill="#243047"/><circle cx="1594.42" cy="1198.56" r="3.86" fill="#243047"/><circle cx="1620.18" cy="1172.8" r="3.86" fill="#243047"/><circle cx="1594.42" cy="1172.8" r="3.86" fill="#243047"/><path fill="#243047" d="M1581.54 1207.58a3.86 3.86 0 0 0-3.86 3.86 3.86 3.86 0 0 0 7.72 0 3.86 3.86 0 0 0-3.86-3.86Z"/><circle cx="1581.54" cy="1185.68" r="3.86" fill="#243047"/><path fill="#243047" d="M1607.3 1259.09a3.87 3.87 0 0 0-3.87 3.87 3.87 3.87 0 0 0 7.73 0 3.86 3.86 0 0 0-3.86-3.87Z"/><circle cx="1607.3" cy="1237.2" r="3.86" fill="#243047"/><circle cx="1620.18" cy="1250.08" r="3.86" fill="#243047"/><circle cx="1594.42" cy="1250.08" r="3.86" fill="#243047"/><circle cx="1620.18" cy="1224.32" r="3.86" fill="#243047"/><circle cx="1594.42" cy="1224.32" r="3.86" fill="#243047"/><path fill="#243047" d="M1581.54 1259.09a3.86 3.86 0 0 0-2.67 1.08l1.71 2.79 1 1.53 1.3 2.09a3.85 3.85 0 0 0 2.56-3.62 3.86 3.86 0 0 0-3.9-3.87Z"/><circle cx="1581.54" cy="1237.2" r="3.86" fill="#243047"/><circle cx="1607.3" cy="1288.72" r="3.86" fill="#243047"/><circle cx="1620.18" cy="1301.6" r="3.86" fill="#243047"/><circle cx="1620.18" cy="1275.84" r="3.86" fill="#243047"/><circle cx="1594.42" cy="1275.84" r="3.86" fill="#243047"/><path fill="#243047" d="M1555.78 1053a3.86 3.86 0 0 0-3.86 3.87 3.86 3.86 0 0 0 7.72 0 3.86 3.86 0 0 0-3.86-3.87Z"/><circle cx="1555.78" cy="1031.13" r="3.86" fill="#243047"/><circle cx="1568.66" cy="1044.01" r="3.86" fill="#243047"/><circle cx="1542.9" cy="1044.01" r="3.86" fill="#243047"/><circle cx="1568.66" cy="1018.25" r="3.86" fill="#243047"/><circle cx="1542.9" cy="1018.25" r="3.86" fill="#243047"/><path fill="#243047" d="M1530 1053a3.86 3.86 0 0 0-3.86 3.87 3.86 3.86 0 0 0 7.72 0 3.86 3.86 0 0 0-3.86-3.87Z"/><circle cx="1530.02" cy="1031.13" r="3.86" fill="#243047"/><path fill="#243047" d="M1555.78 1104.54a3.86 3.86 0 0 0-3.86 3.86 3.86 3.86 0 0 0 7.72 0 3.86 3.86 0 0 0-3.86-3.86Z"/><circle cx="1555.78" cy="1082.65" r="3.86" fill="#243047"/><circle cx="1568.66" cy="1095.52" r="3.86" fill="#243047"/><circle cx="1542.9" cy="1095.52" r="3.86" fill="#243047"/><circle cx="1568.66" cy="1069.77" r="3.86" fill="#243047"/><circle cx="1542.9" cy="1069.77" r="3.86" fill="#243047"/><path fill="#243047" d="M1530 1104.54a3.86 3.86 0 0 0-3.86 3.86 3.86 3.86 0 0 0 7.72 0 3.86 3.86 0 0 0-3.86-3.86Z"/><circle cx="1530.02" cy="1082.65" r="3.86" fill="#243047"/><path fill="#243047" d="M1555.78 1156.06a3.86 3.86 0 0 0-3.86 3.86 3.86 3.86 0 1 0 7.72 0 3.86 3.86 0 0 0-3.86-3.86Z"/><circle cx="1555.78" cy="1134.16" r="3.86" fill="#243047"/><circle cx="1568.66" cy="1147.04" r="3.86" fill="#243047"/><circle cx="1542.9" cy="1147.04" r="3.86" fill="#243047"/><circle cx="1568.66" cy="1121.28" r="3.86" fill="#243047"/><circle cx="1542.9" cy="1121.28" r="3.86" fill="#243047"/><path fill="#243047" d="M1530 1156.06a3.94 3.94 0 0 0-.77.08c.26.73.52 1.47.77 2.2.18.53.37 1.06.55 1.58.4 1.14.81 2.28 1.22 3.42a3.85 3.85 0 0 0 2.09-3.42 3.86 3.86 0 0 0-3.86-3.86Z"/><circle cx="1530.02" cy="1134.16" r="3.86" fill="#243047"/><path fill="#243047" d="M1555.78 1207.58a3.84 3.84 0 0 0-3.78 3.42l.22.48 1.62 3.31a3.85 3.85 0 0 0 5.83-3.31 3.86 3.86 0 0 0-3.89-3.9Z"/><circle cx="1555.78" cy="1185.68" r="3.86" fill="#243047"/><circle cx="1568.66" cy="1198.56" r="3.86" fill="#243047"/><path fill="#243047" d="M1544.6 1195.11q1 2.23 2 4.47a3.78 3.78 0 0 0-2-4.47Z"/><circle cx="1568.66" cy="1172.8" r="3.86" fill="#243047"/><circle cx="1542.9" cy="1172.8" r="3.86" fill="#243047"/><path fill="#243047" d="m1571.11 1247.12.23.39 1.12 1.92a3.8 3.8 0 0 0-1.35-2.31Z"/><circle cx="1568.66" cy="1224.32" r="3.86" fill="#243047"/><path fill="#243047" d="M1517.14 1040.14a3.36 3.36 0 0 0-.71.08c-.67 2.14-1.27 4.38-1.77 6.72a3.82 3.82 0 0 0 2.48.93 3.87 3.87 0 1 0 0-7.73ZM1517.14 1091.66a3.87 3.87 0 0 0-3.16 1.65c.22 1.71.46 3.44.73 5.19a3.78 3.78 0 0 0 2.43.89 3.87 3.87 0 1 0 0-7.73Z"/><circle cx="1517.14" cy="1069.77" r="3.86" fill="#243047"/><path fill="#243047" d="M1518.28 1117.61c.48 2.14 1 4.29 1.52 6.47a3.84 3.84 0 0 0-1.52-6.47ZM808.77 1053a3.86 3.86 0 0 0-3.86 3.87 3.86 3.86 0 1 0 7.72 0 3.86 3.86 0 0 0-3.86-3.87Z"/><circle cx="821.65" cy="1095.52" r="3.86" fill="#243047"/><circle cx="821.65" cy="1069.77" r="3.86" fill="#243047"/><path fill="#243047" d="M808.77 1104.54a3.86 3.86 0 0 0-3.86 3.86 3.86 3.86 0 1 0 7.72 0 3.86 3.86 0 0 0-3.86-3.86Z"/><circle cx="808.77" cy="1082.65" r="3.86" fill="#243047"/><path fill="#243047" d="M830.67 1159.92a3.84 3.84 0 0 0 2.49 3.6q.23-1.8.42-3.6c.15-1.27.28-2.54.4-3.81a3.86 3.86 0 0 0-3.31 3.81ZM830.67 1134.16a3.86 3.86 0 0 0 3.86 3.87 3.5 3.5 0 0 0 .65-.07q.12-3.81.14-7.58a4.07 4.07 0 0 0-.79-.08 3.86 3.86 0 0 0-3.86 3.86Z"/><circle cx="821.65" cy="1147.04" r="3.86" fill="#243047"/><circle cx="821.65" cy="1121.28" r="3.86" fill="#243047"/><path fill="#243047" d="M808.77 1156.06a3.86 3.86 0 0 0-3.86 3.86 3.86 3.86 0 1 0 7.72 0 3.86 3.86 0 0 0-3.86-3.86Z"/><circle cx="808.77" cy="1134.16" r="3.86" fill="#243047"/><path fill="#243047" d="M834.53 1112.27h.17c-.1-1.29-.2-2.57-.32-3.85s-.23-2.54-.37-3.81a3.85 3.85 0 0 0-3.34 3.81 3.86 3.86 0 0 0 3.86 3.85Z"/><circle cx="821.65" cy="1198.56" r="3.86" fill="#243047"/><circle cx="821.65" cy="1172.8" r="3.86" fill="#243047"/><path fill="#243047" d="M808.77 1207.58a3.86 3.86 0 0 0-3.86 3.86 3.86 3.86 0 1 0 7.72 0 3.86 3.86 0 0 0-3.86-3.86Z"/><circle cx="808.77" cy="1185.68" r="3.86" fill="#243047"/><path fill="#243047" d="M817.79 1224.32a3.85 3.85 0 0 0 .79 2.33l2-6a3.84 3.84 0 0 0-2.79 3.67Z"/><circle cx="808.77" cy="1237.2" r="3.86" fill="#243047"/><path fill="#243047" d="M757.25 1001.5a3.86 3.86 0 0 0-3.86 3.87 3.87 3.87 0 0 0 7.73 0 3.87 3.87 0 0 0-3.87-3.87ZM783 1053a3.86 3.86 0 0 0-3.86 3.87 3.86 3.86 0 1 0 7.72 0A3.86 3.86 0 0 0 783 1053Z"/><circle cx="783.01" cy="1031.13" r="3.86" fill="#243047"/><path fill="#243047" d="M808.77 1035a4 4 0 0 0 1.35-.25c-.45-.64-.89-1.27-1.35-1.89q-1.51-2-3.12-4a3.86 3.86 0 0 0 3.12 6.13Z"/><circle cx="795.89" cy="1044.01" r="3.86" fill="#243047"/><circle cx="770.13" cy="1044.01" r="3.86" fill="#243047"/><path fill="#243047" d="M795.89 1022.11a3.85 3.85 0 0 0 2.6-1 85.776 85.776 0 0 0-5.76-5.06 3.86 3.86 0 0 0 3.16 6.08Z"/><circle cx="770.13" cy="1018.25" r="3.86" fill="#243047"/><path fill="#243047" d="M757.25 1053a3.86 3.86 0 0 0-3.86 3.87 3.87 3.87 0 0 0 7.73 0 3.87 3.87 0 0 0-3.87-3.87Z"/><circle cx="757.25" cy="1031.13" r="3.86" fill="#243047"/><path fill="#243047" d="M782.73 1009.21c-.92-.54-1.87-1.06-2.82-1.55a3.87 3.87 0 0 0 2.82 1.55ZM783 1104.54a3.86 3.86 0 0 0-3.86 3.86 3.86 3.86 0 1 0 7.72 0 3.86 3.86 0 0 0-3.86-3.86Z"/><circle cx="783.01" cy="1082.65" r="3.86" fill="#243047"/><circle cx="795.89" cy="1095.52" r="3.86" fill="#243047"/><circle cx="770.13" cy="1095.52" r="3.86" fill="#243047"/><circle cx="795.89" cy="1069.77" r="3.86" fill="#243047"/><circle cx="770.13" cy="1069.77" r="3.86" fill="#243047"/><path fill="#243047" d="M757.25 1104.54a3.86 3.86 0 0 0-3.86 3.86 3.87 3.87 0 0 0 7.73 0 3.86 3.86 0 0 0-3.87-3.86Z"/><circle cx="757.25" cy="1082.65" r="3.86" fill="#243047"/><path fill="#243047" d="M783 1156.06a3.86 3.86 0 0 0-3.86 3.86 3.86 3.86 0 1 0 7.72 0 3.86 3.86 0 0 0-3.86-3.86Z"/><circle cx="783.01" cy="1134.16" r="3.86" fill="#243047"/><circle cx="795.89" cy="1147.04" r="3.86" fill="#243047"/><circle cx="770.13" cy="1147.04" r="3.86" fill="#243047"/><circle cx="795.89" cy="1121.28" r="3.86" fill="#243047"/><circle cx="770.13" cy="1121.28" r="3.86" fill="#243047"/><path fill="#243047" d="M757.25 1156.06a3.86 3.86 0 0 0-3.86 3.86 3.87 3.87 0 1 0 7.73 0 3.86 3.86 0 0 0-3.87-3.86Z"/><circle cx="757.25" cy="1134.16" r="3.86" fill="#243047"/><path fill="#243047" d="M783 1207.58a3.86 3.86 0 0 0-3.86 3.86 3.86 3.86 0 1 0 7.72 0 3.86 3.86 0 0 0-3.86-3.86Z"/><circle cx="783.01" cy="1185.68" r="3.86" fill="#243047"/><circle cx="795.89" cy="1198.56" r="3.86" fill="#243047"/><circle cx="770.13" cy="1198.56" r="3.86" fill="#243047"/><circle cx="795.89" cy="1172.8" r="3.86" fill="#243047"/><circle cx="770.13" cy="1172.8" r="3.86" fill="#243047"/><path fill="#243047" d="M757.25 1207.58a3.86 3.86 0 0 0-3.86 3.86 3.87 3.87 0 0 0 7.73 0 3.86 3.86 0 0 0-3.87-3.86Z"/><circle cx="757.25" cy="1185.68" r="3.86" fill="#243047"/><path fill="#243047" d="M783 1259.09a3.86 3.86 0 0 0-3.86 3.87 3.86 3.86 0 1 0 7.72 0 3.86 3.86 0 0 0-3.86-3.87Z"/><circle cx="783.01" cy="1237.2" r="3.86" fill="#243047"/><circle cx="795.89" cy="1250.08" r="3.86" fill="#243047"/><circle cx="770.13" cy="1250.08" r="3.86" fill="#243047"/><circle cx="795.89" cy="1224.32" r="3.86" fill="#243047"/><circle cx="770.13" cy="1224.32" r="3.86" fill="#243047"/><path fill="#243047" d="M757.25 1259.09a3.86 3.86 0 0 0-3.86 3.87 3.87 3.87 0 0 0 7.73 0 3.87 3.87 0 0 0-3.87-3.87Z"/><circle cx="757.25" cy="1237.2" r="3.86" fill="#243047"/><circle cx="783.01" cy="1288.72" r="3.86" fill="#243047"/><circle cx="770.13" cy="1301.6" r="3.86" fill="#243047"/><path fill="#243047" d="M795.89 1272a3.87 3.87 0 0 0 0 7.73c1.07-2 2.13-4 3.16-6.11a3.87 3.87 0 0 0-3.16-1.62Z"/><circle cx="770.13" cy="1275.84" r="3.86" fill="#243047"/><path fill="#243047" d="M757.25 1310.61a3.86 3.86 0 0 0-3.86 3.87 3.87 3.87 0 0 0 7.73 0 3.87 3.87 0 0 0-3.87-3.87Z"/><circle cx="757.25" cy="1288.72" r="3.86" fill="#243047"/><path fill="#243047" d="M731.49 1001.5a3.86 3.86 0 0 0-3.86 3.87 3.87 3.87 0 0 0 7.73 0 3.87 3.87 0 0 0-3.87-3.87ZM707.79 1005.37l-2.06.77c-1.08.42-2.17.85-3.25 1.29a3.86 3.86 0 0 0 7.12-2.06 4.07 4.07 0 0 0-.06-.61ZM731.49 1053a3.86 3.86 0 0 0-3.86 3.87 3.87 3.87 0 0 0 7.73 0 3.87 3.87 0 0 0-3.87-3.87Z"/><circle cx="731.49" cy="1031.13" r="3.86" fill="#243047"/><circle cx="744.37" cy="1044.01" r="3.86" fill="#243047"/><circle cx="718.61" cy="1044.01" r="3.86" fill="#243047"/><circle cx="744.37" cy="1018.25" r="3.86" fill="#243047"/><circle cx="718.61" cy="1018.25" r="3.86" fill="#243047"/><path fill="#243047" d="M705.73 1053a3.86 3.86 0 0 0-3.86 3.87 3.87 3.87 0 0 0 7.73 0 3.87 3.87 0 0 0-3.87-3.87Z"/><circle cx="705.73" cy="1031.13" r="3.86" fill="#243047"/><path fill="#243047" d="M731.49 1104.54a3.86 3.86 0 0 0-3.86 3.86 3.87 3.87 0 0 0 7.73 0 3.86 3.86 0 0 0-3.87-3.86Z"/><circle cx="731.49" cy="1082.65" r="3.86" fill="#243047"/><circle cx="744.37" cy="1095.52" r="3.86" fill="#243047"/><circle cx="718.61" cy="1095.52" r="3.86" fill="#243047"/><circle cx="744.37" cy="1069.77" r="3.86" fill="#243047"/><circle cx="718.61" cy="1069.77" r="3.86" fill="#243047"/><path fill="#243047" d="M705.73 1104.54a3.86 3.86 0 0 0-3.86 3.86 3.87 3.87 0 0 0 7.73 0 3.86 3.86 0 0 0-3.87-3.86Z"/><circle cx="705.73" cy="1082.65" r="3.86" fill="#243047"/><path fill="#243047" d="M731.49 1156.06a3.86 3.86 0 0 0-3.86 3.86 3.87 3.87 0 1 0 7.73 0 3.86 3.86 0 0 0-3.87-3.86Z"/><circle cx="731.49" cy="1134.16" r="3.86" fill="#243047"/><circle cx="744.37" cy="1147.04" r="3.86" fill="#243047"/><circle cx="718.61" cy="1147.04" r="3.86" fill="#243047"/><circle cx="744.37" cy="1121.28" r="3.86" fill="#243047"/><circle cx="718.61" cy="1121.28" r="3.86" fill="#243047"/><path fill="#243047" d="M705.73 1156.06a3.86 3.86 0 0 0-3.86 3.86 3.87 3.87 0 1 0 7.73 0 3.86 3.86 0 0 0-3.87-3.86Z"/><circle cx="705.73" cy="1134.16" r="3.86" fill="#243047"/><path fill="#243047" d="M731.49 1207.58a3.86 3.86 0 0 0-3.86 3.86 3.87 3.87 0 0 0 7.73 0 3.86 3.86 0 0 0-3.87-3.86Z"/><circle cx="731.49" cy="1185.68" r="3.86" fill="#243047"/><circle cx="744.37" cy="1198.56" r="3.86" fill="#243047"/><circle cx="718.61" cy="1198.56" r="3.86" fill="#243047"/><circle cx="744.37" cy="1172.8" r="3.86" fill="#243047"/><circle cx="718.61" cy="1172.8" r="3.86" fill="#243047"/><path fill="#243047" d="M705.73 1207.58a3.86 3.86 0 0 0-3.86 3.86 3.87 3.87 0 0 0 7.73 0 3.86 3.86 0 0 0-3.87-3.86Z"/><circle cx="705.73" cy="1185.68" r="3.86" fill="#243047"/><path fill="#243047" d="M731.49 1259.09a3.86 3.86 0 0 0-3.86 3.87 3.87 3.87 0 0 0 7.73 0 3.87 3.87 0 0 0-3.87-3.87Z"/><circle cx="731.49" cy="1237.2" r="3.86" fill="#243047"/><circle cx="744.37" cy="1250.08" r="3.86" fill="#243047"/><circle cx="718.61" cy="1250.08" r="3.86" fill="#243047"/><circle cx="744.37" cy="1224.32" r="3.86" fill="#243047"/><circle cx="718.61" cy="1224.32" r="3.86" fill="#243047"/><path fill="#243047" d="M705.73 1259.09a3.86 3.86 0 0 0-3.86 3.87 3.87 3.87 0 0 0 7.73 0 3.87 3.87 0 0 0-3.87-3.87Z"/><circle cx="705.73" cy="1237.2" r="3.86" fill="#243047"/><path fill="#243047" d="M731.49 1310.61a3.86 3.86 0 0 0-3.86 3.87 3.87 3.87 0 0 0 7.73 0 3.87 3.87 0 0 0-3.87-3.87Z"/><circle cx="731.49" cy="1288.72" r="3.86" fill="#243047"/><circle cx="744.37" cy="1301.6" r="3.86" fill="#243047"/><circle cx="718.61" cy="1301.6" r="3.86" fill="#243047"/><circle cx="744.37" cy="1275.84" r="3.86" fill="#243047"/><circle cx="718.61" cy="1275.84" r="3.86" fill="#243047"/><path fill="#243047" d="M705.73 1310.61a3.86 3.86 0 0 0-3.86 3.87 3.87 3.87 0 0 0 7.73 0 3.87 3.87 0 0 0-3.87-3.87Z"/><circle cx="705.73" cy="1288.72" r="3.86" fill="#243047"/><path fill="#243047" d="M727.63 1366v.43l.52-.44c1.45-1.21 2.89-2.44 4.32-3.71a3.81 3.81 0 0 0-1-.15 3.86 3.86 0 0 0-3.84 3.87Z"/><circle cx="731.49" cy="1340.24" r="3.86" fill="#243047"/><path fill="#243047" d="M753.39 1340.24a3.87 3.87 0 0 0 .15 1c1.25-1.4 2.48-2.81 3.71-4.25l.51-.59a4.2 4.2 0 0 0-.51-.05 3.86 3.86 0 0 0-3.86 3.89ZM740.51 1353.11a3.74 3.74 0 0 0 .29 1.47q2.54-2.46 5-5a4 4 0 0 0-1.47-.29 3.86 3.86 0 0 0-3.82 3.82Z"/><circle cx="718.61" cy="1353.11" r="3.86" fill="#243047"/><circle cx="744.37" cy="1327.36" r="3.86" fill="#243047"/><circle cx="718.61" cy="1327.36" r="3.86" fill="#243047"/><path fill="#243047" d="M705.73 1362.13a3.86 3.86 0 0 0-3.86 3.86 3.87 3.87 0 0 0 7.73 0 3.86 3.86 0 0 0-3.87-3.86Z"/><circle cx="705.73" cy="1340.24" r="3.86" fill="#243047"/><path fill="#243047" d="M680 1053a3.86 3.86 0 0 0-3.86 3.87 3.87 3.87 0 0 0 7.73 0A3.87 3.87 0 0 0 680 1053Z"/><circle cx="679.97" cy="1031.13" r="3.86" fill="#243047"/><circle cx="692.85" cy="1044.01" r="3.86" fill="#243047"/><circle cx="667.1" cy="1044.01" r="3.86" fill="#243047"/><circle cx="692.85" cy="1018.25" r="3.86" fill="#243047"/><path fill="#243047" d="M654.22 1053a3.87 3.87 0 0 0-3.87 3.87 3.87 3.87 0 0 0 7.73 0 3.86 3.86 0 0 0-3.86-3.87ZM680 1104.54a3.86 3.86 0 0 0-3.86 3.86 3.87 3.87 0 0 0 7.73 0 3.86 3.86 0 0 0-3.87-3.86Z"/><circle cx="679.97" cy="1082.65" r="3.86" fill="#243047"/><circle cx="692.85" cy="1095.52" r="3.86" fill="#243047"/><circle cx="667.1" cy="1095.52" r="3.86" fill="#243047"/><circle cx="692.85" cy="1069.77" r="3.86" fill="#243047"/><circle cx="667.1" cy="1069.77" r="3.86" fill="#243047"/><path fill="#243047" d="M654.22 1104.54a3.86 3.86 0 0 0-3.87 3.86 3.87 3.87 0 0 0 7.73 0 3.86 3.86 0 0 0-3.86-3.86Z"/><circle cx="654.22" cy="1082.65" r="3.86" fill="#243047"/><path fill="#243047" d="M680 1156.06a3.86 3.86 0 0 0-3.86 3.86 3.87 3.87 0 1 0 7.73 0 3.86 3.86 0 0 0-3.87-3.86Z"/><circle cx="679.97" cy="1134.16" r="3.86" fill="#243047"/><circle cx="692.85" cy="1147.04" r="3.86" fill="#243047"/><circle cx="667.1" cy="1147.04" r="3.86" fill="#243047"/><circle cx="692.85" cy="1121.28" r="3.86" fill="#243047"/><circle cx="667.1" cy="1121.28" r="3.86" fill="#243047"/><path fill="#243047" d="M654.22 1156.06a3.86 3.86 0 0 0-3.87 3.86 3.87 3.87 0 1 0 7.73 0 3.86 3.86 0 0 0-3.86-3.86Z"/><circle cx="654.22" cy="1134.16" r="3.86" fill="#243047"/><path fill="#243047" d="M680 1207.58a3.86 3.86 0 0 0-3.86 3.86 3.87 3.87 0 0 0 7.73 0 3.86 3.86 0 0 0-3.87-3.86Z"/><circle cx="679.97" cy="1185.68" r="3.86" fill="#243047"/><circle cx="692.85" cy="1198.56" r="3.86" fill="#243047"/><circle cx="667.1" cy="1198.56" r="3.86" fill="#243047"/><circle cx="692.85" cy="1172.8" r="3.86" fill="#243047"/><circle cx="667.1" cy="1172.8" r="3.86" fill="#243047"/><path fill="#243047" d="M654.22 1207.58a3.86 3.86 0 0 0-3.87 3.86 3.87 3.87 0 0 0 7.73 0 3.86 3.86 0 0 0-3.86-3.86Z"/><circle cx="654.22" cy="1185.68" r="3.86" fill="#243047"/><path fill="#243047" d="M680 1259.09a3.86 3.86 0 0 0-3.86 3.87 3.87 3.87 0 0 0 7.73 0 3.87 3.87 0 0 0-3.87-3.87Z"/><circle cx="679.97" cy="1237.2" r="3.86" fill="#243047"/><circle cx="692.85" cy="1250.08" r="3.86" fill="#243047"/><circle cx="667.1" cy="1250.08" r="3.86" fill="#243047"/><circle cx="692.85" cy="1224.32" r="3.86" fill="#243047"/><circle cx="667.1" cy="1224.32" r="3.86" fill="#243047"/><path fill="#243047" d="M654.22 1259.09a3.87 3.87 0 0 0-3.87 3.87 3.87 3.87 0 0 0 7.73 0 3.86 3.86 0 0 0-3.86-3.87Z"/><circle cx="654.22" cy="1237.2" r="3.86" fill="#243047"/><path fill="#243047" d="M680 1310.61a3.86 3.86 0 0 0-3.86 3.87 3.87 3.87 0 0 0 7.73 0 3.87 3.87 0 0 0-3.87-3.87Z"/><circle cx="679.97" cy="1288.72" r="3.86" fill="#243047"/><circle cx="692.85" cy="1301.6" r="3.86" fill="#243047"/><circle cx="667.1" cy="1301.6" r="3.86" fill="#243047"/><circle cx="692.85" cy="1275.84" r="3.86" fill="#243047"/><circle cx="667.1" cy="1275.84" r="3.86" fill="#243047"/><path fill="#243047" d="M654.22 1310.61a3.87 3.87 0 0 0-3.87 3.87 3.87 3.87 0 0 0 7.73 0 3.86 3.86 0 0 0-3.86-3.87Z"/><circle cx="654.22" cy="1288.72" r="3.86" fill="#243047"/><path fill="#243047" d="M680 1362.13a3.86 3.86 0 0 0-3.86 3.86 3.87 3.87 0 0 0 7.73 0 3.86 3.86 0 0 0-3.87-3.86Z"/><circle cx="679.97" cy="1340.24" r="3.86" fill="#243047"/><circle cx="692.85" cy="1353.11" r="3.86" fill="#243047"/><circle cx="667.1" cy="1353.11" r="3.86" fill="#243047"/><circle cx="692.85" cy="1327.36" r="3.86" fill="#243047"/><circle cx="667.1" cy="1327.36" r="3.86" fill="#243047"/><path fill="#243047" d="M654.22 1362.13a3.86 3.86 0 0 0-3.87 3.86 3.87 3.87 0 0 0 7.73 0 3.86 3.86 0 0 0-3.86-3.86Z"/><circle cx="654.22" cy="1340.24" r="3.86" fill="#243047"/><path fill="#243047" d="M680 1387.89a3.86 3.86 0 0 0-.77 7.65q1.95-.74 3.9-1.53a3.82 3.82 0 0 0 .74-2.26 3.86 3.86 0 0 0-3.87-3.86Z"/><circle cx="692.85" cy="1378.87" r="3.86" fill="#243047"/><circle cx="667.1" cy="1378.87" r="3.86" fill="#243047"/><circle cx="654.22" cy="1391.75" r="3.86" fill="#243047"/><path fill="#243047" d="M628.46 1104.54a3.86 3.86 0 0 0-3.87 3.86 3.87 3.87 0 0 0 7.73 0 3.86 3.86 0 0 0-3.86-3.86Z"/><circle cx="628.46" cy="1082.65" r="3.86" fill="#243047"/><circle cx="641.34" cy="1095.52" r="3.86" fill="#243047"/><circle cx="615.58" cy="1095.52" r="3.86" fill="#243047"/><circle cx="641.34" cy="1069.77" r="3.86" fill="#243047"/><path fill="#243047" d="M602.7 1104.54a3.86 3.86 0 0 0-3.87 3.86 3.87 3.87 0 0 0 7.73 0 3.86 3.86 0 0 0-3.86-3.86ZM628.46 1156.06a3.86 3.86 0 0 0-3.87 3.86 3.87 3.87 0 1 0 7.73 0 3.86 3.86 0 0 0-3.86-3.86Z"/><circle cx="628.46" cy="1134.16" r="3.86" fill="#243047"/><circle cx="641.34" cy="1147.04" r="3.86" fill="#243047"/><circle cx="615.58" cy="1147.04" r="3.86" fill="#243047"/><circle cx="641.34" cy="1121.28" r="3.86" fill="#243047"/><circle cx="615.58" cy="1121.28" r="3.86" fill="#243047"/><path fill="#243047" d="M602.7 1156.06a3.86 3.86 0 0 0-3.87 3.86 3.87 3.87 0 1 0 7.73 0 3.86 3.86 0 0 0-3.86-3.86Z"/><circle cx="602.7" cy="1134.16" r="3.86" fill="#243047"/><path fill="#243047" d="M628.46 1207.58a3.86 3.86 0 0 0-3.87 3.86 3.87 3.87 0 0 0 7.73 0 3.86 3.86 0 0 0-3.86-3.86Z"/><circle cx="628.46" cy="1185.68" r="3.86" fill="#243047"/><circle cx="641.34" cy="1198.56" r="3.86" fill="#243047"/><circle cx="615.58" cy="1198.56" r="3.86" fill="#243047"/><circle cx="641.34" cy="1172.8" r="3.86" fill="#243047"/><circle cx="615.58" cy="1172.8" r="3.86" fill="#243047"/><path fill="#243047" d="M602.7 1207.58a3.86 3.86 0 0 0-3.87 3.86 3.87 3.87 0 0 0 7.73 0 3.86 3.86 0 0 0-3.86-3.86Z"/><circle cx="602.7" cy="1185.68" r="3.86" fill="#243047"/><path fill="#243047" d="M628.46 1259.09a3.87 3.87 0 0 0-3.87 3.87 3.87 3.87 0 0 0 7.73 0 3.86 3.86 0 0 0-3.86-3.87Z"/><circle cx="628.46" cy="1237.2" r="3.86" fill="#243047"/><circle cx="641.34" cy="1250.08" r="3.86" fill="#243047"/><circle cx="615.58" cy="1250.08" r="3.86" fill="#243047"/><circle cx="641.34" cy="1224.32" r="3.86" fill="#243047"/><circle cx="615.58" cy="1224.32" r="3.86" fill="#243047"/><path fill="#243047" d="M602.7 1259.09a3.87 3.87 0 0 0-3.87 3.87 3.87 3.87 0 0 0 7.73 0 3.86 3.86 0 0 0-3.86-3.87Z"/><circle cx="602.7" cy="1237.2" r="3.86" fill="#243047"/><path fill="#243047" d="M628.46 1310.61a3.87 3.87 0 0 0-3.87 3.87 3.87 3.87 0 0 0 7.73 0 3.86 3.86 0 0 0-3.86-3.87Z"/><circle cx="628.46" cy="1288.72" r="3.86" fill="#243047"/><circle cx="641.34" cy="1301.6" r="3.86" fill="#243047"/><circle cx="615.58" cy="1301.6" r="3.86" fill="#243047"/><circle cx="641.34" cy="1275.84" r="3.86" fill="#243047"/><circle cx="615.58" cy="1275.84" r="3.86" fill="#243047"/><path fill="#243047" d="M602.7 1310.61a3.87 3.87 0 0 0-3.87 3.87 3.87 3.87 0 0 0 7.73 0 3.86 3.86 0 0 0-3.86-3.87Z"/><circle cx="602.7" cy="1288.72" r="3.86" fill="#243047"/><path fill="#243047" d="M628.46 1362.13a3.86 3.86 0 0 0-3.87 3.86 3.87 3.87 0 0 0 7.73 0 3.86 3.86 0 0 0-3.86-3.86Z"/><circle cx="628.46" cy="1340.24" r="3.86" fill="#243047"/><circle cx="641.34" cy="1353.11" r="3.86" fill="#243047"/><circle cx="615.58" cy="1353.11" r="3.86" fill="#243047"/><circle cx="641.34" cy="1327.36" r="3.86" fill="#243047"/><circle cx="615.58" cy="1327.36" r="3.86" fill="#243047"/><path fill="#243047" d="M602.7 1362.13a3.86 3.86 0 0 0-3.87 3.86 3.87 3.87 0 0 0 7.73 0 3.86 3.86 0 0 0-3.86-3.86Z"/><circle cx="602.7" cy="1340.24" r="3.86" fill="#243047"/><circle cx="628.46" cy="1391.75" r="3.86" fill="#243047"/><path fill="#243047" d="M641.34 1400.77a3.84 3.84 0 0 0-3.18 1.67c2.12.12 4.27.15 6.42.11a3.85 3.85 0 0 0-3.24-1.78Z"/><circle cx="641.34" cy="1378.87" r="3.86" fill="#243047"/><circle cx="615.58" cy="1378.87" r="3.86" fill="#243047"/><path fill="#243047" d="M602.7 1387.89a3.84 3.84 0 0 0-3.36 2c1.1.72 2.22 1.41 3.36 2.08s2.17 1.23 3.28 1.81a3.81 3.81 0 0 0 .58-2 3.86 3.86 0 0 0-3.86-3.89ZM576.94 1156.06a3.86 3.86 0 0 0-3.86 3.86 3.86 3.86 0 1 0 7.72 0 3.86 3.86 0 0 0-3.86-3.86Z"/><circle cx="589.82" cy="1147.04" r="3.86" fill="#243047"/><path fill="#243047" d="M591.87 1118c-1.22 2.24-2.41 4.51-3.59 6.8a3.76 3.76 0 0 0 1.54.33 3.86 3.86 0 0 0 2-7.13ZM576.94 1207.58a3.86 3.86 0 0 0-3.86 3.86 3.86 3.86 0 1 0 7.72 0 3.86 3.86 0 0 0-3.86-3.86Z"/><circle cx="576.94" cy="1185.68" r="3.86" fill="#243047"/><circle cx="589.82" cy="1198.56" r="3.86" fill="#243047"/><path fill="#243047" d="M564.06 1194.7a3.85 3.85 0 0 0-3.5 2.24l-.33 1.25v.37a3.86 3.86 0 1 0 3.86-3.86Z"/><circle cx="589.82" cy="1172.8" r="3.86" fill="#243047"/><path fill="#243047" d="M567 1175.26a3.87 3.87 0 0 0 .9-2.46 1.23 1.23 0 0 0 0-.19c-.3.88-.59 1.77-.9 2.65ZM576.94 1259.09a3.86 3.86 0 0 0-3.86 3.87 3.86 3.86 0 1 0 7.72 0 3.86 3.86 0 0 0-3.86-3.87Z"/><circle cx="576.94" cy="1237.2" r="3.86" fill="#243047"/><circle cx="589.82" cy="1250.08" r="3.86" fill="#243047"/><circle cx="564.06" cy="1250.08" r="3.86" fill="#243047"/><circle cx="589.82" cy="1224.32" r="3.86" fill="#243047"/><circle cx="564.06" cy="1224.32" r="3.86" fill="#243047"/><path fill="#243047" d="M551.18 1259.09a2.57 2.57 0 0 0-.4.05c-.07 1.27-.12 2.55-.16 3.82s-.08 2.53-.11 3.8a4.91 4.91 0 0 0 .67.06A3.86 3.86 0 0 0 555 1263a3.86 3.86 0 0 0-3.82-3.91ZM553.15 1233.89a297.4 297.4 0 0 0-.88 7 3.84 3.84 0 0 0 .88-7ZM576.94 1310.61a3.86 3.86 0 0 0-3.86 3.87 3.86 3.86 0 1 0 7.72 0 3.86 3.86 0 0 0-3.86-3.87Z"/><circle cx="576.94" cy="1288.72" r="3.86" fill="#243047"/><circle cx="589.82" cy="1301.6" r="3.86" fill="#243047"/><circle cx="564.06" cy="1301.6" r="3.86" fill="#243047"/><circle cx="589.82" cy="1275.84" r="3.86" fill="#243047"/><circle cx="564.06" cy="1275.84" r="3.86" fill="#243047"/><path fill="#243047" d="M554.51 1314.48c.09.45.18.9.28 1.36a4.1 4.1 0 0 0 .25-1.36 3.85 3.85 0 0 0-1-2.63c.12.88.29 1.75.47 2.63ZM551.18 1284.85h-.36c.1 1.81.22 3.6.36 5.39l.18 2.28a3.86 3.86 0 0 0-.18-7.71ZM576.94 1362.13a3.85 3.85 0 0 0-3.18 1.68c.48.74 1 1.47 1.46 2.18.88 1.27 1.79 2.51 2.71 3.72a3.83 3.83 0 0 0 2.87-3.71 3.86 3.86 0 0 0-3.86-3.87Z"/><circle cx="576.94" cy="1340.24" r="3.86" fill="#243047"/><circle cx="589.82" cy="1353.11" r="3.86" fill="#243047"/><path fill="#243047" d="M565.89 1349.73c.64 1.35 1.3 2.68 2 4a3.72 3.72 0 0 0-2-4Z"/><circle cx="589.82" cy="1327.36" r="3.86" fill="#243047"/><circle cx="564.06" cy="1327.36" r="3.86" fill="#243047"/><path fill="#243047" d="M589.82 1375a3.86 3.86 0 0 0-3.87 3.86s0 .06 0 .08q1.95 2 4 3.77a3.86 3.86 0 0 0-.13-7.71Z"/><path fill="#1561d4" d="M765.12 1055.71a21.73 21.73 0 0 0-27.13 6.57l10.91-21.84a21.65 21.65 0 0 0-36.82-22.44l8.24-16.5a21.65 21.65 0 0 0-38.73-19.35l-4.15 8.29a21.65 21.65 0 0 0-40.09-15.95l-76.76 153.61c-.09.18-.16.35-.25.53-.18.35-.36.69-.53 1l-.93 1.86a85.78 85.78 0 0 0-5.14 63.87l-71.61 143.3 110.49 8.9 52.3-92.08a86.3 86.3 0 0 0 65.4-42.34 21.77 21.77 0 0 0 1.86-3.05l62.63-125.32a21.73 21.73 0 0 0-9.69-29.06Z"/><path fill="#243047" d="M592.62 1351.84h-.34l-110.49-8.9a4.29 4.29 0 0 1-3.5-6.2L549.14 1195a89.85 89.85 0 0 1 5.9-65.39l.93-1.86.39-.77.15-.29c.08-.17.16-.35.25-.52l76.75-153.59a26 26 0 0 1 47.55 2.58 26 26 0 0 1 31.49-6.54 26 26 0 0 1 11.61 34.8l-1.12 2.26a26 26 0 0 1 29.7 36.73l-3.8 7.59a25.91 25.91 0 0 1 18.09 1.92 26 26 0 0 1 11.62 34.81L716 1212a26.4 26.4 0 0 1-2.09 3.47 90.85 90.85 0 0 1-66.34 44l-51.24 90.2a4.27 4.27 0 0 1-3.71 2.17Zm-103.8-17 101.42 8.17 51-89.7a4.3 4.3 0 0 1 3.27-2.15 82.24 82.24 0 0 0 62.1-40.16 2.92 2.92 0 0 1 .24-.37 17.81 17.81 0 0 0 1.49-2.45L771 1082.84a17.42 17.42 0 0 0-7.76-23.29 17.55 17.55 0 0 0-21.75 5.27 4.29 4.29 0 0 1-7.3-4.46l10.91-21.84a17.43 17.43 0 0 0-7.77-23.29 17.54 17.54 0 0 0-21.75 5.26 4.29 4.29 0 0 1-7.3-4.46l8.24-16.5A17.36 17.36 0 0 0 685.43 984l-4.15 8.3a4.29 4.29 0 0 1-7.95-3.16 17.36 17.36 0 0 0-32.14-12.79L564.43 1130l-.19.42s0 .11-.08.16l-.18.35c-.11.21-.23.43-.33.64l-.93 1.86a81.31 81.31 0 0 0-4.87 60.68 4.31 4.31 0 0 1-.27 3.19Z"/><path fill="#fff" d="M639.4 1343.34a4.31 4.31 0 0 1-1.92-.46l-137.65-68.79a4.29 4.29 0 0 1-1.93-5.76l19.2-38.41a4.27 4.27 0 0 1 5.76-1.92l137.66 68.79a4.29 4.29 0 0 1 1.92 5.76l-19.2 38.45a4.28 4.28 0 0 1-2.48 2.15 4.22 4.22 0 0 1-1.36.19Z"/><path fill="#243047" d="m662.44 1293-137.66-68.79a8.48 8.48 0 0 0-3.83-.91 8.59 8.59 0 0 0-7.69 4.75l-19.2 38.41a8.59 8.59 0 0 0 3.85 11.52l137.65 68.79a8.64 8.64 0 0 0 3.84.91 8.75 8.75 0 0 0 2.72-.44 8.58 8.58 0 0 0 5-4.31l19.2-38.41a8.59 8.59 0 0 0-3.88-11.52Zm-23 46.09-137.66-68.79 19.2-38.41 137.66 68.79Z"/><path fill="#ff3145" d="M453.49 1357.42s130.48 85.32 192.25 0l6.63-13.33-154-76.95Z"/><path fill="#243047" d="M568.22 1399.59a168.31 168.31 0 0 1-42.87-6c-40.54-10.71-72.85-31.66-74.21-32.55a4.29 4.29 0 0 1-1.49-5.5l44.89-90.28a4.31 4.31 0 0 1 5.77-1.93l154 77a4.29 4.29 0 0 1 1.93 5.75l-6.64 13.33a3.76 3.76 0 0 1-.36.61c-19.05 26.2-46.63 39.57-81.02 39.57Zm-109.14-43.76c9.14 5.51 36.59 21 68.65 29.48 51.41 13.54 89.87 3.41 114.33-30.12l4.56-9.18-146.3-73.11Z"/><path fill="#243047" d="M608 1332.8s-31.22 44.07-63.86 35.91c0 0 39.17 27.31 66.92 1S608 1332.8 608 1332.8Z"/><path fill="#fff" d="m507.48 1285.44-31.2 68.8 50.24-55.73-19.04-13.07z"/><path fill="#1561d4" d="M1568.71 1055.71a21.74 21.74 0 0 1 27.13 6.57l-10.92-21.84a21.65 21.65 0 0 1 36.82-22.49l-8.24-16.5a21.65 21.65 0 0 1 38.74-19.35l4.14 8.29a21.65 21.65 0 0 1 40.09-15.95l76.76 153.61c.09.18.17.35.25.53l.54 1 .92 1.86a85.73 85.73 0 0 1 5.14 63.87l71.61 143.3-110.49 8.9-52.3-92.08a86.3 86.3 0 0 1-65.4-42.34 21.77 21.77 0 0 1-1.86-3.05L1559 1084.76a21.71 21.71 0 0 1 9.71-29.05Z"/><path fill="#243047" d="M1741.2 1351.84a4.3 4.3 0 0 1-3.73-2.17l-51.23-90.2a90.83 90.83 0 0 1-66.34-44 24.84 24.84 0 0 1-2.1-3.47l-62.62-125.32a26 26 0 0 1 11.61-34.81 25.92 25.92 0 0 1 18.09-1.92l-3.8-7.59a26 26 0 0 1 29.7-36.74l-1.12-2.25a26 26 0 0 1 43.1-28.26 26 26 0 0 1 47.55-2.58l76.76 153.6c.08.16.16.33.23.49l.16.32c.14.25.27.51.4.76l.92 1.86a89.85 89.85 0 0 1 5.9 65.39l70.85 141.78a4.29 4.29 0 0 1-3.5 6.2l-110.48 8.9Zm-170.57-292.29a17.41 17.41 0 0 0-7.77 23.29l62.62 125.32a17.13 17.13 0 0 0 1.49 2.44c.09.12.17.25.25.38a82.22 82.22 0 0 0 62.14 40.22 4.3 4.3 0 0 1 3.27 2.15l50.95 89.7 101.43-8.17-68.77-137.61a4.26 4.26 0 0 1-.26-3.19 81.32 81.32 0 0 0-4.88-60.68l-.92-1.86-.33-.63-.19-.36-.07-.15-.2-.43-76.76-153.61a17.36 17.36 0 0 0-32.14 12.79 4.29 4.29 0 0 1-8 3.16l-4.14-8.3a17.36 17.36 0 0 0-31.06 15.52l8.24 16.5a4.29 4.29 0 0 1-7.3 4.46 17.54 17.54 0 0 0-21.75-5.26 17.43 17.43 0 0 0-7.77 23.29l10.92 21.84a4.29 4.29 0 0 1-7.3 4.46 17.55 17.55 0 0 0-21.75-5.27Z"/><path fill="#fff" d="M1694.42 1343.34a4.29 4.29 0 0 1-3.84-2.38l-19.2-38.41a4.34 4.34 0 0 1-.23-3.28 4.3 4.3 0 0 1 2.16-2.48L1811 1228a4.27 4.27 0 0 1 5.76 1.92l19.2 38.41a4.3 4.3 0 0 1-1.92 5.76l-137.66 68.79a4.27 4.27 0 0 1-1.96.46Z"/><path fill="#243047" d="m1839.76 1266.41-19.2-38.41a8.58 8.58 0 0 0-5-4.31 8.75 8.75 0 0 0-2.72-.44 8.64 8.64 0 0 0-3.84.91L1671.38 1293a8.6 8.6 0 0 0-3.84 11.52l19.2 38.41a8.6 8.6 0 0 0 7.69 4.75 8.48 8.48 0 0 0 3.83-.91l137.66-68.79a8.59 8.59 0 0 0 3.84-11.57ZM1694.42 1339l-19.2-38.41 137.66-68.79 19.2 38.41Z"/><path fill="#ff3145" d="M1881.77 1362.57s-130.48 85.32-192.25 0l-6.63-13.33 154-77Z"/><path fill="#243047" d="M1767 1404.75c-34.39 0-62-13.38-81-39.66a4.6 4.6 0 0 1-.37-.6l-6.63-13.34a4.3 4.3 0 0 1 1.93-5.75l154-77a4.31 4.31 0 0 1 5.77 1.93l44.89 90.28a4.3 4.3 0 0 1-1.49 5.51c-1.36.88-33.67 21.83-74.21 32.55a168.31 168.31 0 0 1-42.89 6.08Zm-73.84-44.41c24.48 33.57 63 43.69 114.51 30.08 32-8.47 59.36-23.93 68.47-29.43l-41.24-82.94-146.3 73.11Z"/><path fill="#243047" d="M1730.65 1341.82s31.21 44.07 63.86 35.91c0 0-39.18 27.31-66.92 1s3.06-36.91 3.06-36.91Z"/><path fill="#fff" d="m1830.3 1289.09 31.19 68.8-50.24-55.72 19.05-13.08z"/><path fill="#7975ff" d="M1162.16 862.61c287.88 0 521.26 90 521.34 201.07V659.92c0-111.08-233.41-201.13-521.34-201.13s-521.34 90.05-521.34 201.13v403.8c.02-111.07 233.42-201.11 521.34-201.11Z"/><path fill="#243047" d="M640.82 1068a4.31 4.31 0 0 1-4.3-4.3V659.92c0-55.62 55.21-107.55 155.45-146.22 98.95-38.18 230.42-59.2 370.19-59.2s271.24 21 370.19 59.2c100.24 38.67 155.44 90.6 155.44 146.22v403.76a4.29 4.29 0 1 1-8.58 0c0-25.89-13.35-51.16-39.61-75.1-25.87-23.59-63-44.81-110.39-63.08-98-37.79-228.34-58.61-367-58.61s-269.1 20.82-367.09 58.62c-47.38 18.28-84.51 39.5-110.38 63.09-26.26 23.95-39.57 49.22-39.58 75.11a4.3 4.3 0 0 1-4.34 4.29Zm521.34-209.7c139.74 0 271.2 21 370.14 59.18 77.28 29.8 127.8 67.49 146.91 108.67V659.92c0-25.89-13.32-51.17-39.57-75.11-25.87-23.59-63-44.82-110.38-63.1-98-37.81-228.36-58.62-367.1-58.62s-269.11 20.81-367.1 58.62c-47.38 18.28-84.52 39.51-110.38 63.1-26.26 23.94-39.57 49.22-39.57 75.11v366.25C664.21 985 714.73 947.31 792 917.51c98.93-38.17 230.4-59.19 370.16-59.19Z"/><path fill="#243047" d="M640.82 707.68a4.3 4.3 0 0 1-4.3-4.3c0-40.33 29.34-79.22 84.85-112.46 53.16-31.84 127.88-57.23 216.08-73.44a4.3 4.3 0 0 1 1.55 8.45c-87.2 16-160.93 41-213.22 72.36-52.78 31.6-80.67 67.94-80.67 105.09a4.29 4.29 0 0 1-4.29 4.3Z"/><path fill="#243047" d="M640.82 755.06a4.31 4.31 0 0 1-4.3-4.3c0-40.33 29.34-79.22 84.85-112.46 53.16-31.84 127.88-57.23 216.08-73.44a4.29 4.29 0 0 1 1.55 8.44c-87.2 16-160.93 41.05-213.22 72.37-52.78 31.6-80.67 67.94-80.67 105.09a4.3 4.3 0 0 1-4.29 4.3Z"/><path fill="#243047" d="M640.82 802.43a4.3 4.3 0 0 1-4.3-4.29c0-64.38 74.26-123.69 203.74-162.71a4.3 4.3 0 0 1 2.48 8.23c-60.61 18.26-110.67 41.85-144.74 68.22-35.1 27.12-52.89 56.12-52.89 86.26a4.29 4.29 0 0 1-4.29 4.29Z"/><path fill="#243047" d="M640.82 849.81a4.3 4.3 0 0 1-4.3-4.29c0-40.34 29.34-79.22 84.85-112.46 53.16-31.84 127.88-57.24 216.08-73.44a4.29 4.29 0 0 1 1.55 8.44c-87.2 16-160.93 41.05-213.22 72.36-52.78 31.61-80.67 68-80.67 105.1a4.29 4.29 0 0 1-4.29 4.29Z"/><path fill="#243047" d="M640.82 897.19a4.3 4.3 0 0 1-4.3-4.29c0-30 15.88-58.88 47.19-85.72 29.69-25.45 71.8-47.91 125.17-66.75a4.3 4.3 0 1 1 2.86 8.1c-52.37 18.47-93.56 40.41-122.45 65.17-29.31 25.13-44.18 51.78-44.18 79.2a4.29 4.29 0 0 1-4.29 4.29Z"/><path fill="#243047" d="M640.82 944.57a4.3 4.3 0 0 1-4.3-4.29c0-40.34 29.34-79.23 84.85-112.47 53.16-31.83 127.88-57.23 216.08-73.44a4.3 4.3 0 0 1 1.55 8.45c-87.2 16-160.93 41-213.22 72.36-52.78 31.6-80.67 67.94-80.67 105.1a4.29 4.29 0 0 1-4.29 4.29Z"/><path fill="#243047" d="M640.82 992a4.31 4.31 0 0 1-4.3-4.3c0-40.33 29.34-79.22 84.85-112.46 53.16-31.83 127.88-57.23 216.08-73.44a4.3 4.3 0 0 1 1.55 8.4c-87.2 16-160.93 41-213.22 72.36-52.78 31.6-80.67 67.94-80.67 105.09a4.3 4.3 0 0 1-4.29 4.35Z"/><path fill="#243047" d="M640.82 1039.33a4.31 4.31 0 0 1-4.3-4.3c0-40.33 29.34-79.22 84.85-112.46 53.16-31.84 127.88-57.23 216.08-73.44a4.29 4.29 0 0 1 1.55 8.44c-87.2 16-160.93 41-213.22 72.37-52.78 31.6-80.67 67.94-80.67 105.06a4.3 4.3 0 0 1-4.29 4.33ZM1677.21 707.68a4.29 4.29 0 0 1-4.29-4.3c0-62.54-80.09-122.08-214.24-159.29a4.29 4.29 0 1 1 2.3-8.27c66.33 18.4 121.47 42.89 159.45 70.84 40 29.39 61.08 62.84 61.08 96.72a4.3 4.3 0 0 1-4.3 4.3Z"/><path fill="#243047" d="M1677.21 755.06a4.3 4.3 0 0 1-4.29-4.3c0-63.68-82.39-123.86-220.39-161a4.29 4.29 0 1 1 2.23-8.29c68.07 18.31 124.73 42.93 163.86 71.21 41.14 29.74 62.89 63.65 62.89 98a4.31 4.31 0 0 1-4.3 4.38Z"/><path fill="#fff" d="M640.82 659.92v404.6c.62 64.64 78.49 122.09 199.06 158.71V819.42c-121.05-36.78-199.06-94.54-199.06-159.5Z"/><path fill="#243047" d="M839.89 1227.53a4.06 4.06 0 0 1-1.24-.19c-127.59-38.75-201.22-97.93-202.11-162.42v-405a4.3 4.3 0 0 1 8.59 0c0 30.38 17.66 59.63 52.5 86.94 33.84 26.54 83.48 50.21 143.53 68.45a4.29 4.29 0 0 1 3.05 4.11v403.81a4.31 4.31 0 0 1-4.3 4.3Zm-194.78-163.36v.31c.3 30.24 18.09 59.35 52.9 86.52 32.78 25.58 80.26 48.49 137.58 66.42V822.59c-59.7-18.42-109.2-42.24-143.29-69C669.77 736 654 717.35 645.11 698Z"/><path fill="#243047" d="m772.73 845.87-60 60.35c-1.39 1.41-3 1.81-4.28 1.28a3.5 3.5 0 0 1-1.83-1.91c-1.17-2.57-.32-6.47 1.89-8.69l59.94-60.3c2.25-2.26 5-2 6.22.54s.33 6.47-1.94 8.73Zm-49.24-21.49c-.73-3-3.28-4-5.7-2.3l-31.34 21.71a8.41 8.41 0 0 0-3 8.34l9.31 38.46a3.94 3.94 0 0 0 2.19 2.92 3.53 3.53 0 0 0 3.42-.56 8.5 8.5 0 0 0 3.07-8.37l-8-33.12 27-18.71a8.47 8.47 0 0 0 3.05-8.37Zm74.11 66.44L788.73 852c-.7-3-3.25-4-5.7-2.3a8.66 8.66 0 0 0-3.17 8.47l7.66 33.41-27.32 19A8.73 8.73 0 0 0 757 919a3.93 3.93 0 0 0 2.17 3 3.56 3.56 0 0 0 3.44-.58l31.75-22.07a8.77 8.77 0 0 0 3.24-8.53Z"/><path fill="#bac3fa" d="M780.94 995.17a4.38 4.38 0 0 1-1.65-.33C687.23 956.6 636.52 906 636.52 852.35a4.3 4.3 0 1 1 8.59 0c0 49.95 48.82 97.73 137.48 134.56a4.3 4.3 0 0 1-1.65 8.26Z"/><path fill="#bac3fa" d="M780.94 1044.27a4.38 4.38 0 0 1-1.65-.33c-92.06-38.24-142.77-88.85-142.77-142.49a4.3 4.3 0 1 1 8.59 0c0 49.95 48.82 97.74 137.48 134.56a4.3 4.3 0 0 1-1.65 8.26Z"/><path fill="#bac3fa" d="M780.94 1093.37a4.38 4.38 0 0 1-1.65-.33c-92.06-38.24-142.77-88.85-142.77-142.49a4.3 4.3 0 0 1 8.59 0c0 50 48.82 97.74 137.48 134.56a4.3 4.3 0 0 1-1.65 8.26Z"/><path fill="#bac3fa" d="M780.94 1142.47a4.38 4.38 0 0 1-1.65-.33c-92.06-38.24-142.77-88.85-142.77-142.49a4.3 4.3 0 0 1 8.59 0c0 49.95 48.82 97.74 137.48 134.56a4.3 4.3 0 0 1-1.65 8.26Z"/><path fill="#243047" d="M839.89 1227.53a4.06 4.06 0 0 1-1.24-.19c-127.59-38.75-201.22-97.93-202.11-162.42v-405a4.3 4.3 0 0 1 8.59 0c0 30.38 17.66 59.63 52.5 86.94 33.84 26.54 83.48 50.21 143.53 68.45a4.29 4.29 0 0 1 3.05 4.11v403.81a4.31 4.31 0 0 1-4.3 4.3Zm-194.78-163.36v.31c.3 30.24 18.09 59.35 52.9 86.52 32.78 25.58 80.26 48.49 137.58 66.42V822.59c-59.7-18.42-109.2-42.24-143.29-69C669.77 736 654 717.35 645.11 698Z"/><path fill="#ff3145" d="M1434.71 698.25v193.43c149.21 35.37 248.74 98.92 248.79 171.43V869.74c0-72.54-99.5-136.11-248.79-171.49Z"/><path fill="#243047" d="M1683.5 1067.4a4.3 4.3 0 0 1-4.3-4.29c0-33.5-23-66.72-66.56-96.08-43-29-104.86-53.62-178.92-71.17a4.3 4.3 0 0 1-3.3-4.18V698.25a4.29 4.29 0 0 1 5.28-4.17c75.08 17.79 137.93 42.84 181.77 72.42 46 31 70.32 66.74 70.32 103.24v193.37a4.29 4.29 0 0 1-4.29 4.29ZM1439 888.29c73.59 17.74 135.24 42.48 178.43 71.62 30.14 20.33 51 42.66 61.76 65.9V869.74c0-33.51-23-66.75-66.53-96.12-42-28.32-101.93-52.45-173.66-69.92Z"/><path fill="#243047" d="M1683.5 659.92v404.6c-.62 64.64-78.48 122.09-199.06 158.71V819.42c121.04-36.78 199.06-94.54 199.06-159.5Z"/><path fill="#243047" d="M1484.42 1227.53a4.23 4.23 0 0 1-2.55-.85 4.28 4.28 0 0 1-1.74-3.45V819.42a4.29 4.29 0 0 1 3-4.11c60-18.24 109.68-41.91 143.53-68.45 34.83-27.31 52.5-56.56 52.5-86.94a4.29 4.29 0 0 1 8.58 0v404.6a2.82 2.82 0 0 1 0 .41c-.89 64.48-74.52 123.66-202.1 162.41a4.12 4.12 0 0 1-1.22.19Zm4.3-404.94v394.83c57.32-17.93 104.8-40.84 137.57-66.42 34.81-27.17 52.61-56.28 52.9-86.52V698c-8.9 19.32-24.67 37.92-47.2 55.59-34.08 26.76-83.57 50.58-143.27 69Z"/><path fill="#f93" d="M1010.22 508.76v144.33a1306 1306 0 0 1 151.94-8.68q12.3 0 24.46.22l2.11-144.29q-13.2-.25-26.57-.26a1308.25 1308.25 0 0 0-151.94 8.68Z"/><path fill="#243047" d="M1010.22 657.38a4.3 4.3 0 0 1-4.29-4.3V508.76a4.28 4.28 0 0 1 3.79-4.26 1313 1313 0 0 1 152.44-8.71c8.83 0 17.8.08 26.65.26a4.28 4.28 0 0 1 4.21 4.35l-2.11 144.29a4.25 4.25 0 0 1-1.3 3 4.37 4.37 0 0 1-3.07 1.21c-8.23-.15-16.43-.22-24.38-.22a1304.64 1304.64 0 0 0-151.44 8.65 4.19 4.19 0 0 1-.5.05Zm4.29-144.8v135.69a1317.32 1317.32 0 0 1 147.65-8.16c6.61 0 13.4 0 20.23.15l2-135.71c-7.41-.12-14.86-.18-22.22-.18a1309.46 1309.46 0 0 0-147.66 8.21Z"/><g clip-path="url(#a)"><path fill="#243047" d="M1025.31 602.92a19.7 19.7 0 0 0 22.34 22.29l18.77 46.51a19.73 19.73 0 1 0 29.85 23.34l50.89 7.17a19.73 19.73 0 1 0 34.45-15l29.92-38.23a18.56 18.56 0 0 0 2.29.47 19.74 19.74 0 0 0 5.51-39.1 18.53 18.53 0 0 0-2.33-.17l-18.69-46.32a19.73 19.73 0 1 0-30.38-23L1119 534a19.73 19.73 0 1 0-35.14 14.18l-30.89 39.51a20 20 0 0 0-5.33-1.55 19.74 19.74 0 0 0-22.33 16.78Zm31.1 18.75a19.69 19.69 0 0 0 4-28.17l30.86-39.5a19.71 19.71 0 0 0 26.38-10.65l49 6.89a19.67 19.67 0 0 0 23.05 17.43l18 44.61a19.72 19.72 0 0 0-4.52 32.06l-29.3 37.47a19.7 19.7 0 0 0-25.37 11.08l-50.88-7.18a19.67 19.67 0 0 0-22.41-17.52Z"/><circle cx="1130.72" cy="617.77" r="19.74" fill="#243047" transform="rotate(-63.78 1130.645 617.781)"/></g><path fill="#ff3145" d="M1048.57 833.88q10.29-.89 20.74-1.61V715.8a8.37 8.37 0 0 0-9-8.34l-4 .32a8.36 8.36 0 0 0-7.71 8.33Z"/><path fill="#243047" d="M1048.57 838.17a4.29 4.29 0 0 1-4.3-4.29V716.11a12.73 12.73 0 0 1 11.67-12.61l4-.32a12.66 12.66 0 0 1 13.62 12.62v116.47a4.28 4.28 0 0 1-4 4.28c-7 .49-14 1-20.68 1.6ZM1061 711.73h-.32l-4 .32a4.08 4.08 0 0 0-3.76 4.05v113.1q6-.5 12.16-.94V715.8a4.09 4.09 0 0 0-4.07-4.07Z"/><path fill="#ff3145" d="m1101.64 758.48-4 .19a8.36 8.36 0 0 0-8 8.34v64q10.3-.56 20.74-.95v-63.23a8.36 8.36 0 0 0-8.74-8.35Z"/><path fill="#243047" d="M1089.64 835.31a4.28 4.28 0 0 1-4.29-4.29V767a12.63 12.63 0 0 1 12.05-12.63l4-.19a12.65 12.65 0 0 1 13.22 12.64v63.24a4.3 4.3 0 0 1-4.12 4.29c-6.84.26-13.79.58-20.68.95Zm12.19-72.54-4 .18a4.07 4.07 0 0 0-3.88 4.06v59.49q6.09-.32 12.16-.56v-59.11a4.07 4.07 0 0 0-4.26-4.06Z"/><path fill="#ff3145" d="m1019 739-1.31.14a8.37 8.37 0 0 0-7.44 8.31v90.29q8.94-1.05 18-2v-88.41A8.36 8.36 0 0 0 1019 739Z"/><path fill="#243047" d="M1010.22 842.05a4.28 4.28 0 0 1-4.29-4.29v-90.27a12.64 12.64 0 0 1 11.26-12.59l1.31-.15a12.66 12.66 0 0 1 14 12.58v88.45a4.29 4.29 0 0 1-3.86 4.27c-6.08.63-12.12 1.29-18 2a4.19 4.19 0 0 1-.42 0Zm9.67-98.79h-.45l-1.3.14a4.07 4.07 0 0 0-3.62 4v85.47c3.11-.35 6.26-.69 9.43-1v-84.54a4.07 4.07 0 0 0-4.05-4.07ZM1019 739Z"/><path fill="#ff3145" d="M1143 707.71c-1.35 0-2.69 0-4 .06a8.36 8.36 0 0 0-8.22 8.35v113.33q10.32-.24 20.74-.33V716.06a8.36 8.36 0 0 0-8.52-8.35Z"/><path fill="#243047" d="M1130.71 833.74a4.28 4.28 0 0 1-4.29-4.29V716.12a12.7 12.7 0 0 1 12.44-12.64l4.05-.07a12.67 12.67 0 0 1 12.84 12.65v113.06a4.3 4.3 0 0 1-4.26 4.3c-6.78.05-13.74.16-20.68.32ZM1143.09 712h-.09l-4 .06a4.08 4.08 0 0 0-4 4.06v108.94c4.07-.08 8.13-.14 12.15-.19V716.06a4.06 4.06 0 0 0-4.07-4.06Zm-.12-4.29Z"/><path fill="#ff3145" d="M1171.78 693.23v135.89q9.59.06 19.1.18l2.56-135.94c.08-4.61-4.65-8.42-10.59-8.48h-.21c-5.98-.06-10.86 3.71-10.86 8.35Z"/><path fill="#243047" d="M1190.88 833.59h-.06c-5.71-.07-11.94-.13-19.06-.17a4.3 4.3 0 0 1-4.27-4.3V693.23a11.57 11.57 0 0 1 3.56-8.2 16.28 16.28 0 0 1 11.63-4.44h.24a16.17 16.17 0 0 1 11.43 4.61 11.53 11.53 0 0 1 3.38 8.24l-2.56 135.94a4.29 4.29 0 0 1-4.29 4.21Zm-14.8-8.73c3.76 0 7.26.06 10.59.1l2.48-131.68a3.07 3.07 0 0 0-1-2.09 7.7 7.7 0 0 0-5.38-2h-.2a7.74 7.74 0 0 0-5.51 2 3.06 3.06 0 0 0-1 2.1Z"/><path fill="#bac3fa" d="M1226.21 828.36c63.53 2.74 123.52 9.5 177.86 19.53V521.47c-54.34-10.25-114.33-17.15-177.86-20Z"/><path fill="#243047" d="M1404.07 852.18a4.11 4.11 0 0 1-.78-.07c-55.42-10.23-115.06-16.78-177.27-19.46a4.29 4.29 0 0 1-4.1-4.29V501.52a4.29 4.29 0 0 1 4.48-4.29c62.61 2.76 122.66 9.5 178.47 20a4.31 4.31 0 0 1 3.49 4.22v326.44a4.28 4.28 0 0 1-4.29 4.29Zm-173.57-27.92c59.24 2.72 116.14 8.93 169.28 18.48V525c-53.09-9.83-110-16.23-169.28-19Z"/><path fill="#c8d1fa" d="M1310.76 821h-.06a2.15 2.15 0 0 1-2.08-2.2l2.32-90.91L1299 818a2.14 2.14 0 0 1-4.25-.55L1306 726l-20.33 86a2.15 2.15 0 0 1-4.18-1l20.26-89.67-28.28 79.67a2.14 2.14 0 0 1-4-1.41l29.14-85.11-35.74 71a2.15 2.15 0 0 1-3.85-1.9l37.68-77.4-42.59 59.9a2.14 2.14 0 0 1-3.51-2.46l45.4-66.09-48.51 46a2.15 2.15 0 0 1-3-3.08l51.83-51.27-53.1 29.33a2.15 2.15 0 0 1-2.13-3.73l56.06-33-55.77 10.12a2.15 2.15 0 0 1-.84-4.21l57.38-12.44-55.83-10.74a2.15 2.15 0 0 1 .73-4.23l55.5 8.63-52.81-31.59a2.15 2.15 0 0 1 2.15-3.72l50.89 28.34-46.91-50.5a2.15 2.15 0 0 1 3.11-3l44.4 45.55-39-66.11a2.14 2.14 0 0 1 3.67-2.21l36.75 59.82-29.83-77.89a2.15 2.15 0 0 1 4-1.56l28.44 71.16-20.18-85.88a2.15 2.15 0 0 1 4.17-1l19.8 79.76-10.65-90.55a2.15 2.15 0 0 1 4.26-.53l11 85.9-1.31-92.25a2.15 2.15 0 0 1 4.29-.08l2.13 89.78 7.65-91.41a2.15 2.15 0 0 1 4.28.33l-6.79 91.49 16.2-88.34a2.14 2.14 0 0 1 4.22.76l-15.77 90.9 24.35-83.08a2.15 2.15 0 0 1 4.13 1.19l-24.73 87.76 32.07-75.67a2.15 2.15 0 0 1 4 1.66l-33.47 81.67 39.17-65.85a2.15 2.15 0 0 1 3.71 2.17l-41.69 72.24 45.68-53.31a2.15 2.15 0 0 1 3.29 2.77l-48.86 59.16 51-38a2.15 2.15 0 0 1 2.61 3.41l-54.27 42.51 54.72-20a2.14 2.14 0 0 1 1.53 4l-57.11 22.91 56.17.19a2.15 2.15 0 0 1 .06 4.3l-56.78 1.89 54.72 21.29a2.15 2.15 0 0 1-1.49 4l-53.49-18.75 50.2 41.37a2.15 2.15 0 0 1-2.69 3.35L1331.46 692l43.13 58.76a2.15 2.15 0 0 1-3.43 2.58l-40.69-53.06 34.53 72.45a2.15 2.15 0 0 1-3.86 1.88l-32.65-65.85 25.06 82.35a2.15 2.15 0 0 1-4.1 1.28l-24.14-75.78 15.42 88.63a2.15 2.15 0 0 1-4.23.76l-15.41-83.13 5.94 91.75a2.15 2.15 0 0 1-4.29.29l-6.57-88.11-3.22 92.13a2.15 2.15 0 0 1-2.19 2.07Zm3.35-135.46h.4a2 2 0 0 1 .58-.15 2.13 2.13 0 0 1 .77-.48 2.22 2.22 0 0 1 .88-.89 2.16 2.16 0 0 1 .9-1.3 2.12 2.12 0 0 1 .8-1.65 2.17 2.17 0 0 1 .62-1.9 2.13 2.13 0 0 1 .17-1.72 2 2 0 0 1 .29-.4 2.14 2.14 0 0 1-.17-1.28 2.2 2.2 0 0 1 .4-.94 2.37 2.37 0 0 1-.27-.7 2.18 2.18 0 0 1 .27-1.51l-.14-.21a11 11 0 0 0-.54-3.79 9.95 9.95 0 0 0-1.33-2.82 2.23 2.23 0 0 1-.73-.8 2.16 2.16 0 0 1-.62-.41 1.88 1.88 0 0 1-.48-.12 2.57 2.57 0 0 1-.5 0 2.2 2.2 0 0 1-.68.3 2.09 2.09 0 0 1-.83.67 2.13 2.13 0 0 1-.91 1.1 2.1 2.1 0 0 1-.86 1.48 11.34 11.34 0 0 0-1.13 3.65 1.63 1.63 0 0 1-.17.2 2.17 2.17 0 0 1 0 1.53 2.22 2.22 0 0 1-.38.65 2.09 2.09 0 0 1 .26 1 2.17 2.17 0 0 1-.37 1.23 2.58 2.58 0 0 1 .22.44 2.12 2.12 0 0 1-.1 1.73 2.15 2.15 0 0 1 .31 2 11.48 11.48 0 0 0 1.22 3.18 4.48 4.48 0 0 0 1.42 1.61 2.61 2.61 0 0 1 .54.24Z"/><path fill="#243047" d="M1251.85 775a4.12 4.12 0 0 1-1.49-.27 4.28 4.28 0 0 1-2.53-5.51l23.3-63a4.29 4.29 0 0 1 7.18-1.42l22 23.85 4.05-69a4.29 4.29 0 0 1 7.89-2.08l21.12 32.75 12.15-18.81 24-113.21a4.29 4.29 0 0 1 8.4 1.78l-24.15 114a4.24 4.24 0 0 1-.6 1.44L1337 700.58a4.29 4.29 0 0 1-3.61 2 4.27 4.27 0 0 1-3.6-2l-17.61-27.29-3.88 65.93a4.29 4.29 0 0 1-7.44 2.66l-24.13-26.12-20.87 56.39a4.29 4.29 0 0 1-4.01 2.85Z"/><circle cx="1373.75" cy="559.21" r="10.61" fill="#ff3145"/><path fill="#243047" d="M1373.75 574.11a14.91 14.91 0 1 1 14.91-14.9 14.92 14.92 0 0 1-14.91 14.9Zm0-21.22a6.32 6.32 0 1 0 6.32 6.32 6.32 6.32 0 0 0-6.32-6.32Z"/><circle cx="1252.36" cy="777.75" r="10.61" fill="#f93"/><path fill="#243047" d="M1252.36 792.66a14.91 14.91 0 1 1 14.9-14.91 14.92 14.92 0 0 1-14.9 14.91Zm0-21.22a6.32 6.32 0 1 0 6.32 6.31 6.32 6.32 0 0 0-6.32-6.31Z"/><circle cx="1275.1" cy="707.7" r="10.61" fill="#243047"/><circle cx="1304.53" cy="740.41" r="10.61" fill="#243047"/><circle cx="1308.48" cy="662.58" r="10.61" fill="#243047"/><circle cx="1333.13" cy="702.43" r="10.61" fill="#243047"/><circle cx="1351.04" cy="669.88" r="10.61" fill="#243047"/><path fill="#7975ff" d="M1615.23 971.25a13.12 13.12 0 0 1-5.71-15.17l-23-13.91a13 13 0 0 1-16 2 13.1 13.1 0 0 1-4.52-17.87 12.8 12.8 0 0 1 2.25-2.78l-17.2-29.83c-.2.06-.39.13-.6.18a13 13 0 1 1 7.92-19.43 13 13 0 0 1-2.17 16.3l17.2 29.83a13 13 0 0 1 14.85 5.71 13.12 13.12 0 0 1 1.31 10.79l23 13.9a13 13 0 0 1 16-2 13 13 0 1 1-13.35 22.32Z"/><path fill="#1561d4" d="M685.05 1046.49a22 22 0 0 0-30.93 2.75l-68.24 81.55 33.68 28.21 68.24-81.54a22 22 0 0 0-2.75-30.97Z"/><path fill="#243047" d="M619.56 1163.27a4.3 4.3 0 0 1-3.29-7l68.24-81.55a17.67 17.67 0 0 0-27.1-22.67l-68.24 81.54a4.3 4.3 0 0 1-6.59-5.51l68.24-81.55a26.26 26.26 0 0 1 40.27 33.7l-68.24 81.55a4.29 4.29 0 0 1-3.29 1.49Z"/><path fill="#bac3fa" d="M660.69 1068.5c7.2-6.79 9.52-17.36 6.79-26.8a21.77 21.77 0 0 0-13.36 7.54L635 1072.11a22.24 22.24 0 0 0 25.69-3.61Z"/><path fill="#243047" d="M645.39 1079a27.06 27.06 0 0 1-12.36-3 4.3 4.3 0 0 1-1.34-6.58l19.13-22.87a26.23 26.23 0 0 1 16-9 4.28 4.28 0 0 1 4.8 3c3.25 11.27.13 23.48-8 31.12a26.54 26.54 0 0 1-18.23 7.33Zm-3.11-8.87a18 18 0 0 0 15.47-4.71 22 22 0 0 0 6.42-18.31 17.41 17.41 0 0 0-6.76 4.94Z"/><path fill="#fff" d="M578 1150.18s-28.17 34.91 9.39 55.41c0 0-8.45-5.5 0-27.71s22.54-40 22.54-40Z"/><path fill="#1561d4" d="M1682.72 1049.24a22 22 0 1 0-33.68 28.19l68.24 81.54 33.68-28.18Z"/><path fill="#243047" d="M1717.28 1163.27a4.27 4.27 0 0 1-3.29-1.54l-68.24-81.55a26.25 26.25 0 1 1 40.26-33.7l68.24 81.55a4.29 4.29 0 1 1-6.58 5.51l-68.24-81.54a17.67 17.67 0 1 0-27.1 22.67l68.24 81.55a4.3 4.3 0 0 1-3.29 7Z"/><path fill="#bac3fa" d="M1676.15 1068.5c-7.2-6.79-9.53-17.36-6.8-26.8a21.77 21.77 0 0 1 13.37 7.54l19.14 22.87a22.24 22.24 0 0 1-25.71-3.61Z"/><path fill="#243047" d="M1691.45 1079a26.5 26.5 0 0 1-18.25-7.33c-8.1-7.64-11.23-19.85-8-31.12a4.28 4.28 0 0 1 4.8-3 26.18 26.18 0 0 1 16 9l19.14 22.87a4.3 4.3 0 0 1-1.34 6.58 27.06 27.06 0 0 1-12.35 3Zm-12.36-13.58a18 18 0 0 0 15.47 4.71l-15.13-18.13a17.41 17.41 0 0 0-6.76-4.94 22 22 0 0 0 6.42 18.31Z"/><path fill="#fff" d="M1755.8 1150.18s28.17 34.91-9.39 55.41c0 0 8.45-5.5 0-27.71s-22.54-40-22.54-40Z"/><ellipse cx="531.42" cy="527.99" fill="#fc9d12" rx="34.01" ry="57.67"/><path fill="#fc9d12" d="M587.64 489.42a2.55 2.55 0 0 1-1.64.64c-1.41 0-2.77-1.35-3.42-3.65-3.66-12.92-9.09-24.5-15.71-33.5-1.64-2.22-1.9-6.27-.59-9.05s3.7-3.22 5.34-1c7.5 10.2 13.66 23.33 17.8 38 .91 3.14.12 7.02-1.78 8.56ZM545 434.43a2.34 2.34 0 0 1-.85-.17 35 35 0 0 0-12.75-2.43 35 35 0 0 0-12.49 2.33c-2 .79-4.08-1.4-4.54-4.87s.82-6.91 2.87-7.69a39.64 39.64 0 0 1 14.18-2.6 39.77 39.77 0 0 1 14.45 2.76c2 .8 3.32 4.25 2.85 7.72-.41 2.93-1.97 4.95-3.72 4.95ZM496.17 452.64c-6.64 8.95-12.1 20.49-15.79 33.37-.66 2.3-2 3.63-3.42 3.63a2.61 2.61 0 0 1-1.66-.65c-1.89-1.55-2.67-5.41-1.75-8.6 4.18-14.62 10.37-27.7 17.9-37.83 1.64-2.21 4-1.75 5.34 1s1.03 6.87-.62 9.08ZM588.14 528.14c0-3.56 1.71-6.39 3.8-6.43s3.8 2.89 3.79 6.44a172.59 172.59 0 0 1-6.39 47.29c-.66 2.3-2 3.63-3.42 3.63a2.55 2.55 0 0 1-1.65-.64c-1.89-1.55-2.68-5.4-1.77-8.6a152.51 152.51 0 0 0 5.64-41.69ZM496 603.15c6.63 9 14.49 15.42 22.72 18.6 2 .79 3.33 4.24 2.86 7.71-.4 3-2 5-3.7 5a2.38 2.38 0 0 1-.85-.17c-9.34-3.61-18.25-10.9-25.77-21.09-1.64-2.22-1.9-6.27-.59-9s3.73-3.27 5.33-1.05ZM470.92 521.23c2.1 0 3.79 2.9 3.78 6.46v.3a152.65 152.65 0 0 0 5.6 41.71c.91 3.2.12 7-1.77 8.6a2.61 2.61 0 0 1-1.65.64c-1.41 0-2.76-1.34-3.42-3.65a173.1 173.1 0 0 1-6.35-47.3v-.34c.01-3.55 1.71-6.37 3.81-6.42ZM544 621.78c8.24-3.16 16.1-9.57 22.74-18.54 1.64-2.22 4-1.76 5.33 1s1 6.84-.6 9c-7.53 10.17-16.45 17.44-25.79 21a2.31 2.31 0 0 1-.84.16c-1.74 0-3.31-2-3.7-5-.47-3.4.86-6.84 2.86-7.62ZM481 528c0 47.22 22.58 85.51 50.43 85.51s50.43-38.29 50.43-85.51-22.58-85.51-50.43-85.51S481 480.76 481 528Zm7 0c0-40.65 19.44-73.6 43.41-73.6s43.41 32.95 43.41 73.6-19.43 73.6-43.41 73.6S488 568.64 488 528Z"/><path fill="#ff3145" d="M1084.85 987.69a90 90 0 0 0 6.5 9.73c1.18 1.54 2.41 3.05 3.69 4.51.64.74 1.29 1.46 2 2.17a90.24 90.24 0 0 0 66.26 28.9 90.56 90.56 0 0 0 78.45-45.34 90.59 90.59 0 0 0-78.45-45.34 90.53 90.53 0 0 0-76.94 42.83c-.52.85-1.02 1.7-1.51 2.54Zm78.45 22.67a22.6 22.6 0 0 1-17.49-8.25c-.47-.56-.9-1.14-1.31-1.74a23.84 23.84 0 0 1-2.09-3.85 22.77 22.77 0 0 1 0-17.65 23.42 23.42 0 0 1 2.09-3.85c.41-.6.84-1.19 1.31-1.75a22.67 22.67 0 1 1 17.49 37.09Z"/><path fill="#243047" d="M1163.3 1037.33a95.13 95.13 0 0 1-69.45-30.31c-.7-.74-1.38-1.5-2-2.26a96.21 96.21 0 0 1-3.86-4.74 96.29 96.29 0 0 1-6.8-10.17 4.26 4.26 0 0 1 0-4.31c.51-.88 1-1.76 1.58-2.63a94.82 94.82 0 0 1 162.74 2.63 4.26 4.26 0 0 1 0 4.31 95.29 95.29 0 0 1-82.21 47.48Zm-73.45-49.64a87.28 87.28 0 0 0 4.91 7.12c1.11 1.46 2.3 2.9 3.52 4.3.61.7 1.22 1.39 1.85 2.07a85.42 85.42 0 0 0 63.17 27.56 86.68 86.68 0 0 0 73.45-41 86.25 86.25 0 0 0-146.75-.24Zm73.45 27a26.88 26.88 0 0 1-20.8-9.81 26.84 26.84 0 0 1-1.56-2.08 27 27 0 0 1-2.48-25.57 27.36 27.36 0 0 1 2.48-4.58c.48-.72 1-1.41 1.56-2.08a27 27 0 1 1 20.8 44.12Zm0-45.34a18.31 18.31 0 0 0-14.18 6.69c-.38.45-.73.93-1.06 1.41a18.43 18.43 0 0 0-1.69 3.12 18.38 18.38 0 0 0 0 14.31 19.23 19.23 0 0 0 1.69 3.12c.33.49.69 1 1.06 1.41a18.38 18.38 0 1 0 14.18-30.06ZM1821.65 583.92l35.09-35.09-35.09-71.43-35.09 71.43 35.09 35.09z"/><path fill="#243047" d="m1821.65 598.71 39.5-39.5-39.5 78.94-39.5-78.94 39.5 39.5zM1327.1 1092.57v-27.45a13.1 13.1 0 0 1 5.09 2.48c2.45 2 3.64 4.91 3.64 8.79H1354c0-9.22-3.62-17.31-10.2-22.77a32.1 32.1 0 0 0-16.7-6.93v-10.57H1317v10.73c-13.9 2.2-26.9 12.4-26.9 29.54 0 18.55 15.09 26.15 26.9 31.53v27.46a12.25 12.25 0 0 1-5.18-2.51c-2.36-2-3.56-5.11-3.56-9.16h-18.16c0 12 5.38 19.07 9.89 23a31.2 31.2 0 0 0 17 7.08v10.51h10.15v-10.81c14.08-2.47 26.9-13.2 26.9-29.73-.04-18.4-15.23-25.87-26.94-31.19Zm-18.89-16.18c0-6.36 4.37-9.54 8.74-10.92v22.18c-5.95-3.34-8.74-6.36-8.74-11.26Zm18.89 58.37v-22c6 3.29 8.73 6.21 8.73 10.91 0 6.1-4.17 9.53-8.73 11.09ZM540.3 931c-.47-16.76-18.21-16-18.21-16s12.21-2.29 11.56-19.25c-.47-13.23-10-19-21.09-21.11l-.37-14.94-9.31.23.34 13.67c-1.24 0-2.48-.08-3.7-.07l-.33-13.53-9.31.23.34 13.73a113 113 0 0 0-13.39 2l-1.48 26.23A49.62 49.62 0 0 1 483 901s-.4 16.09-1.8 41.56l-9.17.54-1 25.42c1.61 0 2.48-.12 2.57-.11a196.87 196.87 0 0 0 20.11-1.69l.17 7.11 9.32-.23-.21-8.49c1.26-.27 2.48-.55 3.67-.85l.23 9.25 9.31-.23-.29-11.85c17.31-6.52 24.8-17.07 24.39-30.43Zm-24.77-2.66c.23 8.47-11.68 8.9-11.68 8.9l.27-15.73s11.07-3.24 11.41 6.86Zm-2-21.86c-1.41 7-9 6.34-9 6.34l.33-12.78c1.29-1.82 9.97-.51 8.65 6.47Z"/><path fill="#fc9d12" d="M1033.34 271.76a10.32 10.32 0 0 1-13 .79l-14.46 13.39a10.32 10.32 0 0 1-1.78 12.95l-.21.17c-.07.07-.12.14-.19.2A10.25 10.25 0 0 1 997 302l-2.68 19.33a10.31 10.31 0 1 1-10.4 2.19 8.6 8.6 0 0 1 .8-.67 10.15 10.15 0 0 1 5.6-2.07l2.7-19.42a10.16 10.16 0 0 1-3.39-2.08 10.93 10.93 0 0 1-1.43-1.53 10.29 10.29 0 0 1-.12-12.27l-13.17-14.28a10.3 10.3 0 1 1 3-2.74l13.21 14.27a10.48 10.48 0 0 1 2.42-1.08 10.36 10.36 0 0 1 9.59 1.33l14.46-13.39a10.3 10.3 0 1 1 15.79 2.17Z"/><path fill="#7975ff" d="M1375.5 188.21a19.06 19.06 0 0 1-.57 24.14l22.44 28.7a19.08 19.08 0 0 1 23.57 5.29c.1.13.19.27.29.41s.23.25.33.39a19 19 0 0 1 4 12.58l35.2 7.93a19.06 19.06 0 1 1 2.42 19.5 16 16 0 0 1-1.11-1.58 18.82 18.82 0 0 1-3-10.64l-35.35-8a18.93 18.93 0 0 1-4.35 5.93 19.38 19.38 0 0 1-3.05 2.39 19 19 0 0 1-22.62-1.68l-28.31 22.14a19.06 19.06 0 1 1-4.6-5.88l28.32-22.14a21.06 21.06 0 0 1 2.33-22.07L1369.06 217a19 19 0 1 1 6.44-28.74Z"/><path fill="#fc9d12" d="M950.37 987.44v24.42a12.71 12.71 0 1 1-4.92 0v-24.42a12.7 12.7 0 1 1 4.92 0Z"/><path fill="#7975ff" d="M1821.11 774.87v24.41a12.71 12.71 0 1 1-4.93 0v-24.41a12.71 12.71 0 1 1 4.93 0ZM1372.9 1279.25h37a19.25 19.25 0 1 1 0 7.45h-37a19.25 19.25 0 1 1 0-7.45ZM771.35 456.86h19.18a10 10 0 1 1 0 3.87h-19.18a10 10 0 1 1 0-3.87ZM387 1135.44l21.06-8.53a11.82 11.82 0 1 1 1.72 4.25l-21.06 8.53a11.82 11.82 0 1 1-1.72-4.25Z"/><path fill="#fc9d12" d="M1888.63 393.37a10.6 10.6 0 0 1 13-5.22l10.58-21.15a13.15 13.15 0 0 1-3.59-5.67 12 12 0 0 1 .6-9.05 10.3 10.3 0 0 1 6.67-5.44 11.42 11.42 0 0 1 8.83 1.35 12.86 12.86 0 0 1 2.61 2.07l25.09-15.76a8.91 8.91 0 0 1-.2-.55 12 12 0 0 1 .6-9.05 10.3 10.3 0 0 1 6.67-5.44 11.42 11.42 0 0 1 8.83 1.35c5.71 3.39 8 10.76 5.21 16.41a10.36 10.36 0 0 1-3.55 4 11.16 11.16 0 0 1-11.94.05 12.58 12.58 0 0 1-2.63-2.07l-25.08 15.8a12.1 12.1 0 0 1-.4 9.6 10.36 10.36 0 0 1-3.55 4 10.92 10.92 0 0 1-9.44 1.18L1906.36 391a13.24 13.24 0 0 1 3.59 5.67 12 12 0 0 1-.6 9.05 10.45 10.45 0 0 1-3.56 4.05 10.19 10.19 0 0 1-3.11 1.4 11.46 11.46 0 0 1-8.83-1.36c-5.71-3.43-8.05-10.81-5.22-16.44Z"/><path fill="#7975ff" d="M791.89 184.53a11.51 11.51 0 0 1-13.42-4.53l-22.13 7.77a11.1 11.1 0 0 1-1 6.09 11.27 11.27 0 0 1-6.47 5.78 11.42 11.42 0 0 1-8.72-.45 11.24 11.24 0 0 1-5.87-6.41 10.87 10.87 0 0 1-.64-3L704 184.85c-.07.16-.13.33-.21.5a11.24 11.24 0 0 1-6.47 5.78 11.47 11.47 0 0 1-8.72-.45 11.24 11.24 0 0 1 1-20.82 11.56 11.56 0 0 1 5.41-.53 11.44 11.44 0 0 1 9.18 7.39 11.23 11.23 0 0 1 .64 3l29.68 4.9a11.28 11.28 0 0 1 6.68-6.28 11.5 11.5 0 0 1 13.42 4.53l22.13-7.77a11 11 0 0 1 1-6.09 11.26 11.26 0 0 1 6.46-5.78 11.41 11.41 0 0 1 5.42-.54 11.67 11.67 0 0 1 3.31 1 11.23 11.23 0 0 1-1 20.81Z"/><path fill="#243047" d="M1915.22 616.67h12.41v-12.41h10.48v12.41h12.4v10.48h-12.4v12.4h-10.48v-12.4h-12.41v-10.48zM1190.92 169.97h12.4v-12.41h10.49v12.41h12.4v10.48h-12.4v12.4h-10.49v-12.4h-12.4v-10.48zM1885.11 1014.46h12.4v-12.4h10.48v12.4h12.41v10.48h-12.41v12.41h-10.48v-12.41h-12.4v-10.48zM367.83 799.48h12.4v-12.4h10.49v12.4h12.4v10.48h-12.4v12.41h-10.49v-12.41h-12.4v-10.48zM728.4 321.09h20V301.1h16.91v19.99h19.99V338h-19.99v19.99H748.4V338h-20v-16.91zM1566.32 453.94h12.4v-12.19h10.48v12.19h12.41v10.31h-12.41v12.19h-10.48v-12.19h-12.4v-10.31zM390.93 510.99h12.4v-12.4h10.48v12.4h12.41v10.49h-12.41v12.4h-10.48v-12.4h-12.4v-10.49zM1206.62 1314.6h12.4v-12.41h10.48v12.41h12.41v10.48h-12.41v12.41h-10.48v-12.41h-12.4v-10.48zM1373.75 957.03h12.41v-12.4h10.48v12.4h12.41v10.49h-12.41v12.4h-10.48v-12.4h-12.41v-10.49zM1654.72 176.18h16.36v-16.35h13.83v16.35h16.35v13.83h-16.35v16.36h-13.83v-16.36h-16.36v-13.83zM947.91 1222.58h21.9v-21.9h18.51v21.9h21.9v18.52h-21.9v21.89h-18.51v-21.89h-21.9v-18.52zM470.49 178.71h14.2v-14.2h12.01v14.2h14.2v12.01h-14.2v14.2h-12.01v-14.2h-14.2v-12.01z"/></svg>