<svg id="regular" enable-background="new 0 0 24 24" height="512" viewBox="0 0 24 24" width="512" xmlns="http://www.w3.org/2000/svg"><path d="m13.33 18.076c4.05.964 5.475-2.5 4.761-3.793-.286-.516-2.856-1.507-2.981-1.555-1.104-.402-1.512.348-2.277 1.335-1.469-.735-2.454-1.314-3.466-2.96.057-.071.133-.155.19-.219.354-.396 1.017-1.134.565-2.037-.38-.757-.569-1.285-.708-1.672-.403-1.121-.71-1.425-2.098-1.425-1.445 0-2.566 1.899-2.566 3.534 0 3.569 4.798 7.889 8.58 8.792zm-6.014-10.826c.3 0 .452.01.528.022.162.343.326 1.059.93 2.173-.094.351-1.429 1.174-.81 2.238 1.265 2.148 2.531 2.893 4.345 3.795 1.208.546 1.594-.443 2.36-1.312.355.144 1.553.674 2.079.94-.047 1.036-1.047 1.992-3.07 1.51-3.472-.829-7.429-4.735-7.429-7.333.001-.988.694-2.033 1.067-2.033z"/><path d="m.083 23.085c-.131.474.224.949.723.949.18 0-.114.046 5.848-1.5 2.427 1.236 4.272 1.197 5.45 1.308 10.555 0 15.725-12.873 8.461-20.363-9.957-9.624-25.464 2.336-18.975 14.127zm19.288-18.672c.173.316 5.135 4.791 2.372 11.478-1.701 4.12-5.626 6.659-10.024 6.421-3.578-.199-4.504-1.477-5.163-1.302l-4.683 1.22 1.245-4.524c.054-.194.027-.401-.073-.575-5.983-10.324 7.546-20.939 16.326-12.718z"/></svg>